<svg width="120" height="120" viewBox="0 0 120 120" fill="none" xmlns="http://www.w3.org/2000/svg">
<path d="M95.9934 23.4949C96.035 22.3072 95.8793 21.121 95.5328 19.9846C95.3033 19.2726 94.891 18.6339 94.3372 18.1327C93.7835 17.6315 93.1079 17.2855 92.3786 17.1296C91.3863 16.8895 90.3672 16.7794 89.3468 16.802C69.7801 16.802 50.2153 16.802 30.6525 16.802C29.483 16.766 28.3155 16.9201 27.195 17.2583C26.4831 17.4839 25.8433 17.8944 25.3406 18.4482C24.8378 19.0021 24.49 19.6794 24.3323 20.4117C24.1611 21.0496 24.0652 21.7054 24.0466 22.3657C24.0398 22.5206 24.0243 22.6749 24 22.8279V83.5612C24.0525 84.0584 24.1108 84.5557 24.1633 85.053C24.2198 85.8485 24.5167 86.6077 25.0145 87.2294C25.6042 87.8955 26.3438 88.4109 27.1717 88.7329L42.0275 94.987L56.6034 101.13C57.1048 101.341 57.6004 101.58 58.1077 101.779C58.7714 102.035 59.4801 102.154 60.1907 102.126C60.9013 102.099 61.599 101.927 62.2414 101.621C70.4972 98.0702 78.7997 94.6419 87.0788 91.1375C88.9736 90.3418 90.8685 89.5344 92.7692 88.7446C93.4987 88.4446 94.1667 88.0123 94.7399 87.4692C95.2909 86.9193 95.6437 86.2009 95.7427 85.4274C95.8896 84.5085 95.9636 83.5792 95.9643 82.6485C95.9934 63.4357 95.9993 42.7311 95.9934 23.4949ZM66.8824 76.2306H53.111C47.0183 76.2306 45.2925 74.1186 45.2925 71.9656C45.2925 68.8883 54.2946 64.9451 54.2946 62.172C54.2946 57.0763 48.2835 54.9584 48.2835 47.2242C48.2835 40.3031 53.3326 34.6867 59.5653 34.6867H60.4282C66.6608 34.6867 71.7099 40.3031 71.7099 47.2242C71.7099 54.9584 65.6988 57.0763 65.6988 62.172C65.6988 64.9568 74.7009 68.8883 74.7009 71.9656C74.7009 74.1069 72.9751 76.2306 66.8824 76.2306Z" fill="white"/>
</svg>
