<svg width="24" height="24" viewBox="0 0 24 24" fill="none" xmlns="http://www.w3.org/2000/svg">
<path fill-rule="evenodd" clip-rule="evenodd" d="M12 2.25C17.3777 2.25 21.7385 6.6037 21.75 11.9787C21.2806 11.6333 20.7613 11.3516 20.2063 11.1454C20.0558 9.68367 19.5238 8.33505 18.7113 7.20091L17.0606 6.78824C17.0208 6.77829 16.9792 6.77829 16.9394 6.78824L13.9394 7.53824C13.8281 7.56606 13.75 7.66606 13.75 7.78078V8.37689C13.75 8.39734 13.7525 8.4177 13.7575 8.43753L14.0821 9.73601C14.1045 9.82558 14.1744 9.89552 14.264 9.91791L16.9244 10.583C17.0944 10.6255 17.2533 10.692 17.3978 10.7784C16.4698 10.8664 15.5944 11.1555 14.8223 11.6036L13.9002 11.3731C13.2732 11.2164 12.7836 10.7268 12.6269 10.0998L12.3023 8.80133C12.2676 8.66252 12.25 8.51998 12.25 8.37689V7.78078C12.25 6.97776 12.7965 6.27779 13.5756 6.08303L16.5756 5.33303C16.6508 5.31423 16.7269 5.3005 16.8035 5.29185C15.4506 4.32136 13.792 3.75 12 3.75C8.5427 3.75 5.58211 5.87664 4.355 8.89316L8.4994 9.64668C9.1757 9.76965 9.71738 10.2772 9.88409 10.944L10.5331 13.5399C10.732 14.3356 10.3516 15.1627 9.61793 15.5296L7.8882 16.3944C7.80351 16.4368 7.75001 16.5233 7.75001 16.618V19C7.75001 19.0238 7.7489 19.0473 7.74673 19.0705C8.98873 19.8193 10.4441 20.25 12 20.25C12.2012 20.25 12.4008 20.2428 12.5984 20.2286C12.8602 20.7452 13.1607 21.218 13.4673 21.6403C12.9887 21.7126 12.4987 21.75 12 21.75C6.61522 21.75 2.25 17.3848 2.25 12C2.25 6.61522 6.61522 2.25 12 2.25ZM3.91744 10.3382C3.80765 10.875 3.75 11.4308 3.75 12C3.75 14.3204 4.70798 16.4171 6.25001 17.9161V16.618C6.25001 15.9552 6.62451 15.3492 7.21738 15.0528L8.94711 14.1879C9.05192 14.1355 9.10627 14.0174 9.07785 13.9037L8.42888 11.3078C8.40506 11.2126 8.32768 11.1401 8.23107 11.1225L3.91744 10.3382Z" fill="white" fill-opacity="0.72"/>
<path fill-rule="evenodd" clip-rule="evenodd" d="M17.5718 23.6158C17.5718 23.6158 17.75 23.7499 18 23.7499C18.25 23.7499 18.4287 23.6154 18.4287 23.6154L18.4299 23.6146L18.4334 23.6121L18.4448 23.6041L18.484 23.576C18.5173 23.552 18.5644 23.5175 18.6234 23.473C18.7413 23.3841 18.9072 23.255 19.1051 23.0901C19.4998 22.7611 20.0275 22.285 20.5575 21.6962C21.5928 20.5459 22.75 18.8405 22.75 16.8889C22.75 14.3071 20.6033 12.25 18 12.25C15.3967 12.25 13.25 14.3071 13.25 16.8889C13.25 18.8405 14.4072 20.5459 15.4425 21.6962C15.9725 22.285 16.5002 22.7611 16.8949 23.0901C17.0928 23.255 17.2587 23.3841 17.3766 23.473C17.4356 23.5175 17.4827 23.552 17.516 23.576L17.5552 23.6041L17.5666 23.6121L17.5701 23.6146L17.5718 23.6158ZM20 17C20 18.1046 19.1046 19 18 19C16.8954 19 16 18.1046 16 17C16 15.8954 16.8954 15 18 15C19.1046 15 20 15.8954 20 17Z" fill="white" fill-opacity="0.72"/>
</svg>
