<svg width="24" height="24" viewBox="0 0 24 24" fill="none" xmlns="http://www.w3.org/2000/svg">
<path d="M21.75 11.6286V6.5C21.75 5.25736 20.7426 4.25 19.5 4.25H4.5C3.25736 4.25 2.25 5.25736 2.25 6.5V17.5C2.25 18.7426 3.25736 19.75 4.5 19.75H11.7555L11.7937 19.5587C11.8808 19.1232 12.0949 18.7231 12.409 18.409L12.5681 18.25H4.5C4.08579 18.25 3.75 17.9142 3.75 17.5V6.5C3.75 6.08579 4.08579 5.75 4.5 5.75H19.5C19.9142 5.75 20.25 6.08579 20.25 6.5V11.2639C20.7674 11.2063 21.3009 11.3279 21.75 11.6286Z" fill="white" fill-opacity="0.72"/>
<path fill-rule="evenodd" clip-rule="evenodd" d="M8.5 7.75C7.25736 7.75 6.25 8.75736 6.25 10C6.25 11.2426 7.25736 12.25 8.5 12.25C9.74264 12.25 10.75 11.2426 10.75 10C10.75 8.75736 9.74264 7.75 8.5 7.75ZM7.75 10C7.75 9.58579 8.08579 9.25 8.5 9.25C8.91421 9.25 9.25 9.58579 9.25 10C9.25 10.4142 8.91421 10.75 8.5 10.75C8.08579 10.75 7.75 10.4142 7.75 10Z" fill="white" fill-opacity="0.72"/>
<path d="M13.25 10C13.25 9.58579 13.5858 9.25 14 9.25H18C18.4142 9.25 18.75 9.58579 18.75 10C18.75 10.4142 18.4142 10.75 18 10.75H14C13.5858 10.75 13.25 10.4142 13.25 10Z" fill="white" fill-opacity="0.72"/>
<path d="M14 12.25C13.5858 12.25 13.25 12.5858 13.25 13C13.25 13.4142 13.5858 13.75 14 13.75H16.5C16.9142 13.75 17.25 13.4142 17.25 13C17.25 12.5858 16.9142 12.25 16.5 12.25H14Z" fill="white" fill-opacity="0.72"/>
<path d="M7.03824 14.9394C7.06606 14.8281 7.16606 14.75 7.28078 14.75H9.71922C9.83394 14.75 9.93394 14.8281 9.96176 14.9394L10.2724 16.1819C10.3729 16.5837 10.7801 16.8281 11.1819 16.7276C11.5837 16.6271 11.8281 16.2199 11.7276 15.8181L11.417 14.5756C11.2222 13.7965 10.5222 13.25 9.71922 13.25H7.28078C6.47776 13.25 5.77779 13.7965 5.58303 14.5756L5.27239 15.8181C5.17193 16.2199 5.41625 16.6271 5.8181 16.7276C6.21994 16.8281 6.62715 16.5837 6.72761 16.1819L7.03824 14.9394Z" fill="white" fill-opacity="0.72"/>
<path d="M19.9697 12.9697C20.2626 12.6768 20.7374 12.6768 21.0303 12.9697L23.0303 14.9697C23.3232 15.2626 23.3232 15.7374 23.0303 16.0303L22 17.0607L18.9393 14L19.9697 12.9697Z" fill="white" fill-opacity="0.72"/>
<path d="M18 14.9393L21.0607 18L16.5303 22.5303C16.4256 22.635 16.2923 22.7064 16.1471 22.7354L13.6471 23.2354C13.4012 23.2846 13.147 23.2076 12.9697 23.0303C12.7924 22.853 12.7154 22.5988 12.7646 22.3529L13.2646 19.8529C13.2936 19.7077 13.365 19.5744 13.4697 19.4697L18 14.9393Z" fill="white" fill-opacity="0.72"/>
</svg>
