<svg width="24" height="24" viewBox="0 0 24 24" fill="none" xmlns="http://www.w3.org/2000/svg">
<path d="M11.5303 8.53033C11.8232 8.23744 11.8232 7.76256 11.5303 7.46967C11.2374 7.17678 10.7626 7.17678 10.4697 7.46967L7.93934 10L10.4697 12.5303C10.7626 12.8232 11.2374 12.8232 11.5303 12.5303C11.8232 12.2374 11.8232 11.7626 11.5303 11.4697L10.8107 10.75H12C13.2426 10.75 14.25 11.7574 14.25 13V14C14.25 14.4142 14.5858 14.75 15 14.75C15.4142 14.75 15.75 14.4142 15.75 14V13C15.75 10.9289 14.0711 9.25 12 9.25H10.8107L11.5303 8.53033Z" fill="white" fill-opacity="0.72"/>
<path fill-rule="evenodd" clip-rule="evenodd" d="M6.5 2.25C5.25736 2.25 4.25 3.25736 4.25 4.5V21C4.25 21.2674 4.39232 21.5145 4.62355 21.6487C4.85479 21.7829 5.13998 21.7838 5.3721 21.6512L8.5 19.8638L11.6279 21.6512C11.8585 21.7829 12.1415 21.7829 12.3721 21.6512L15.5 19.8638L18.6279 21.6512C18.86 21.7838 19.1452 21.7829 19.3764 21.6487C19.6077 21.5145 19.75 21.2674 19.75 21V4.5C19.75 3.25736 18.7426 2.25 17.5 2.25H6.5ZM5.75 4.5C5.75 4.08579 6.08579 3.75 6.5 3.75H17.5C17.9142 3.75 18.25 4.08579 18.25 4.5V19.7076L15.8721 18.3488C15.6415 18.2171 15.3585 18.2171 15.1279 18.3488L12 20.1362L8.8721 18.3488C8.64153 18.2171 8.35847 18.2171 8.1279 18.3488L5.75 19.7076V4.5Z" fill="white" fill-opacity="0.72"/>
</svg>
