<svg width="1149" height="513" viewBox="0 0 1149 513" fill="none" xmlns="http://www.w3.org/2000/svg">
<path fill-rule="evenodd" clip-rule="evenodd" d="M183.717 137.742H351.692C365.306 137.742 370.29 142.786 370.29 156.36V320.216C370.29 321.774 370.216 323.183 370.067 324.518C370.044 324.743 370.023 324.966 370.002 325.19C369.743 327.925 369.487 330.625 366.942 333.642C366.645 334.013 363.818 336.09 363.818 336.09C363.477 336.26 363.159 336.422 362.852 336.579C361.817 337.108 360.896 337.578 359.578 338.093L276.929 372.659C272.614 374.662 270.829 375.403 267.705 375.329C264.618 375.402 262.838 374.607 258.634 372.727L258.48 372.659L175.831 338.093C174.121 337.351 173.079 336.832 171.592 336.09H171.591C171.591 336.09 168.764 333.939 168.467 333.642C165.922 330.625 165.666 327.925 165.407 325.19C165.386 324.966 165.365 324.743 165.342 324.518C165.194 323.183 165.119 321.774 165.119 320.216V156.36C165.119 142.786 170.178 137.742 183.717 137.742ZM340.306 302.857L340.38 302.486L340.901 302.931V302.041L340.826 301.596L340.752 301.225L340.603 300.483L340.529 300.112L340.454 299.742L340.306 299.371L340.157 299.074L339.934 298.703L339.711 298.406L339.487 298.036L339.264 297.739L338.967 297.442L338.669 297.145L338.372 296.849L338.074 296.552L337.776 296.329L337.479 296.107L337.181 295.884L336.809 295.662L336.437 295.439L336.065 295.217L335.693 295.068L335.321 294.846L334.875 294.698L334.503 294.623L334.131 294.475L333.759 294.327L333.387 294.178L333.015 294.03L332.643 293.882L332.271 293.807L331.825 293.659L331.453 293.511L331.007 293.437L330.56 293.288L330.114 293.14L329.668 292.992L329.296 292.917L328.924 292.769L328.552 292.695L328.254 292.546L327.957 292.472L327.51 292.324L327.064 292.176L326.692 292.027L326.395 291.805L326.023 291.582L325.725 291.285L325.576 291.063L325.427 290.618L325.353 290.099V290.024L325.427 289.654L325.576 289.283L325.799 288.912L326.171 288.615L326.469 288.467L326.766 288.318L327.138 288.244L327.51 288.17L327.957 288.096H328.775L329.147 288.17L329.519 288.244L329.891 288.318L330.263 288.393L330.486 288.244L330.858 288.318L331.23 288.467L331.602 288.615L332.048 288.764L332.346 288.912L332.718 289.06L333.015 289.209L333.387 289.357L333.685 289.505L334.057 289.654L334.354 289.876L334.726 290.024L335.024 290.247L335.321 290.47L335.693 290.692L335.991 290.915L336.214 290.618L336.958 288.986L337.181 288.689L337.404 288.393L337.628 288.022L337.851 287.725L338.074 287.428L338.297 287.132L338.52 286.835L338.743 286.538L338.967 286.241L339.19 285.945L339.413 285.574L339.636 285.277L339.859 284.98L340.083 284.684L340.306 284.387L340.008 284.165L339.711 283.942L339.413 283.719L339.115 283.497L338.743 283.274L338.446 283.052L338.074 282.829L337.702 282.607L337.404 282.459L337.032 282.236L336.661 282.088L336.289 281.939L335.917 281.791L335.545 281.643L335.173 281.494L334.801 281.42L334.429 281.272L334.057 281.123L333.685 281.049L333.313 280.975L332.941 280.901L332.569 280.827L332.197 280.752L331.751 280.678L331.379 280.604L330.932 280.53H330.56L330.114 280.456L329.668 280.382H328.031L327.659 280.456L327.287 280.53L326.915 280.604L326.543 280.678L326.171 280.752L325.799 280.827L325.427 280.901L325.055 280.975L324.758 281.049L324.386 281.197L324.014 281.346L323.642 281.494L323.27 281.643L322.898 281.865L322.526 282.013L322.154 282.236L321.857 282.459L321.559 282.681L321.262 282.904L320.964 283.126L320.666 283.423L320.369 283.719L320.071 284.016L319.774 284.313L319.551 284.61L319.327 284.906L319.104 285.277L318.881 285.648L318.732 286.019L318.583 286.39L318.435 286.761L318.36 287.132L318.212 287.502L318.137 287.873L318.063 288.244L317.988 288.615L317.914 288.986L317.84 289.357V290.247L317.914 290.692L317.988 291.063L318.063 291.434L318.137 291.805L318.212 292.176L318.36 292.472L318.435 292.843L318.583 293.14L318.732 293.437L318.955 293.807L319.179 294.104L319.402 294.401L319.625 294.698L319.848 294.994L320.146 295.291L320.443 295.588L320.741 295.81L321.038 296.033L321.336 296.255L321.708 296.478L322.005 296.7L322.377 296.923L322.749 297.145L323.121 297.294L323.493 297.442L323.865 297.59L324.312 297.739L324.684 297.887L325.055 298.036L325.427 298.184L325.799 298.258L326.171 298.406L326.543 298.555L326.915 298.629L327.287 298.777L327.659 298.851L328.106 299L328.478 299.074L328.924 299.222L329.296 299.297L329.668 299.445L330.04 299.519L330.412 299.667L330.709 299.742L331.007 299.816L331.453 300.038L331.825 300.187L332.197 300.335L332.495 300.483L332.792 300.706L333.09 300.928L333.313 301.225L333.462 301.596L333.536 302.041V302.115L333.462 302.486L333.313 302.857L333.164 303.154L332.941 303.45L332.643 303.673L332.346 303.821L332.048 303.97L331.676 304.044L331.304 304.118L330.932 304.192L330.486 304.266H329.668L329.221 304.192H328.849L328.478 304.118L328.031 304.044L327.287 303.895L326.915 303.821L326.543 303.673L326.171 303.525L325.799 303.376L325.427 303.228L325.055 303.08L324.684 302.931L324.312 302.783L323.94 302.634L323.642 302.412L323.27 302.264L322.973 302.041L322.601 301.819L322.303 301.596L321.931 301.373L321.633 301.151L321.262 300.928L320.964 300.706L320.741 301.003L320.443 301.299L320.22 301.596L319.923 301.893L319.699 302.189L319.476 302.486L319.179 302.783L318.955 303.08L318.658 303.376L318.435 303.673L318.137 303.97L317.914 304.266L317.691 304.563L317.393 304.86L317.17 305.156L316.872 305.453L316.649 305.75L316.947 306.047L317.244 306.269L317.542 306.492L317.84 306.714L318.137 306.937L318.435 307.159L318.732 307.382L319.03 307.604L319.402 307.827L319.699 308.049L320.071 308.272L320.443 308.42L320.815 308.569L321.187 308.717L321.559 308.865L321.931 309.014L322.303 309.162L322.675 309.31L323.047 309.459L323.419 309.607L323.791 309.755L324.163 309.83L324.535 309.978L324.907 310.052L325.279 310.126L325.651 310.2L326.023 310.275L326.395 310.349L326.766 310.423L327.213 310.497L327.585 310.571L327.957 310.646H328.403L328.775 310.72H330.263L330.635 310.646L331.081 310.571L331.453 310.497L331.825 310.423L332.197 310.349L332.569 310.275L333.239 310.126L333.61 310.052L333.982 309.904V309.978L334.354 309.83L334.726 309.681L335.098 309.533L335.47 309.31L335.842 309.162L336.214 308.939L336.512 308.717L336.809 308.569L337.107 308.346L337.404 308.124L337.702 307.827L337.925 307.604L338.223 307.308L338.446 307.011L338.669 306.714L338.892 306.417L339.115 306.121L339.339 305.824L339.487 305.453L339.636 305.156L339.785 304.786L339.934 304.415L340.008 304.044L340.157 303.673L340.231 303.302L340.306 302.857ZM292.323 310.052H313.971H314.343V303.821H299.539V299.148H312.632V293.288H299.539V288.764H314.12V282.533H292.323V310.052ZM279.454 310.052H286.372L288.083 309.978V282.459H280.346L280.123 282.755L279.9 283.126L279.677 283.423L279.454 283.794L279.231 284.09L279.007 284.461L278.784 284.758L278.561 285.129L278.338 285.426L278.189 285.722L277.966 286.093L277.743 286.39L277.52 286.761L277.296 287.057L277.073 287.428L276.85 287.725L276.627 288.022L276.404 288.393L276.18 288.689L275.957 289.06L275.734 289.357L275.511 289.728L275.288 290.024L275.065 290.395L274.916 290.692L274.693 290.989L274.469 291.36L274.246 291.656L274.023 292.027L273.8 292.324L273.577 292.695L273.354 292.992L273.13 293.362L272.907 293.659L272.684 293.362L272.461 292.992L272.238 292.695L272.089 292.324L271.866 292.027L271.643 291.656L271.419 291.36L271.196 290.989L271.047 290.692L270.824 290.395L270.676 290.024L270.452 289.728L270.229 289.357L270.006 289.06L269.783 288.689L269.56 288.393L269.337 288.022L269.113 287.725L268.89 287.428L268.667 287.057L268.444 286.761L268.221 286.39L267.997 286.093L267.774 285.722L267.551 285.426L267.328 285.129L267.105 284.758L266.882 284.461L266.658 284.09L266.435 283.794L266.212 283.423L265.989 283.126L265.766 282.755L265.543 282.459H257.806V309.978H264.947V293.807L265.171 294.104L265.394 294.475L265.617 294.772L265.84 295.143L266.063 295.439L266.286 295.81L266.435 296.033L266.658 296.404L266.882 296.7L267.105 297.071L267.328 297.368L267.551 297.739L267.774 298.036L267.923 298.258L268.146 298.555L268.369 298.926L268.593 299.222L268.816 299.593L269.039 299.89L269.262 300.261L268.89 300.632L269.113 301.003L269.337 301.299L269.56 301.67L269.708 301.967L269.932 302.338L270.155 302.634L270.378 303.005L270.601 303.302L270.824 303.673L271.047 303.97L271.271 304.341L271.494 304.637L271.717 305.008H271.866L272.089 304.711L272.312 304.341L272.535 304.044L272.758 303.747L272.907 303.376L273.13 303.08L273.354 302.783L273.577 302.412L273.8 302.115L273.949 301.819L274.172 301.522L274.395 301.151L274.618 300.854L274.841 300.558L275.065 300.187L275.288 299.89L275.437 299.593L275.66 299.222L275.883 298.926L276.106 298.629L276.329 298.258L276.552 297.961L276.776 297.665L276.999 297.294L277.222 296.997L277.445 296.7L277.668 296.404L277.891 296.033L278.115 295.736L278.338 295.439L278.561 295.068L278.784 294.772L279.007 294.475L279.231 294.104L279.454 293.807V310.052ZM242.481 298.332L242.63 298.703L242.333 299.074H235.935L236.084 298.703L236.232 298.332L236.381 297.961L236.53 297.59L236.679 297.22L236.828 296.849L236.976 296.478L237.125 296.107L237.274 295.736L237.423 295.365L237.571 294.994L237.72 294.623L237.869 294.253L238.018 293.882L238.167 293.511L238.315 293.14L238.464 292.769L238.613 292.398L238.762 292.027L238.911 291.656L239.059 291.285L239.208 290.915L239.357 290.544L239.506 290.915L239.654 291.285L239.803 291.656L239.952 292.027L240.101 292.398L240.25 292.769L240.398 293.14L240.547 293.511L240.696 293.882L240.845 294.253L240.993 294.623L241.142 294.994L241.291 295.365L241.44 295.736L241.589 296.107L241.737 296.478L241.886 296.849L242.035 297.22L242.184 297.59L242.333 297.961L242.481 298.332ZM247.094 310.052H254.458L255.202 310.349L254.905 309.681L254.756 309.31L254.607 308.939L254.458 308.569L254.309 308.198L254.161 307.827L254.012 307.456L253.863 307.085L253.714 306.714L253.566 306.343L253.417 305.972L253.268 305.602L253.119 305.231L252.97 304.86L252.822 304.489L252.673 304.118L252.524 303.747L252.375 303.376L252.227 303.005L252.078 302.634L251.929 302.264L251.78 301.893L251.631 301.522L251.483 301.151L251.334 300.78L251.185 300.409L251.036 300.038L250.887 299.667L250.739 299.297L250.59 298.926L250.441 298.555L250.292 298.184L250.144 297.813L249.995 297.442L249.846 297.071L249.697 296.7L249.548 296.329L249.4 295.959L249.251 295.588L249.102 295.217L248.953 294.846L248.805 294.475L248.656 294.104L248.507 293.733L248.358 293.362L248.209 292.992L248.061 292.621L247.763 291.953L247.614 291.582L247.465 291.211L247.317 290.84L247.168 290.47L247.019 290.099L246.87 289.728L246.722 289.357L246.573 288.986L246.424 288.615L246.275 288.244L246.126 287.873L245.978 287.502L245.829 287.132L245.68 286.761L245.531 286.39L245.383 286.019L245.234 285.648L245.085 285.277L244.936 284.906L244.787 284.535L244.639 284.165L244.49 283.794L244.341 283.423L244.192 283.052L244.044 282.681L243.895 282.31L243.746 281.939L243.597 281.568L243.448 281.197L243.3 280.827H236.307L236.158 281.197L235.86 281.865L235.712 282.236L235.563 282.607L235.414 282.978L235.265 283.349L235.117 283.719L234.968 284.09L234.819 284.461L234.67 284.832L234.596 285.203L234.447 285.574L234.298 285.945L234.149 286.316L234.001 286.687L233.852 287.057L233.703 287.428L233.554 287.799L233.406 288.17L233.257 288.541L233.108 288.912L232.81 289.579L232.662 289.95L232.513 290.321L232.364 290.692L232.215 291.063L232.067 291.434L231.918 291.805L231.769 292.176L231.62 292.546L231.471 292.917L231.323 293.288L231.174 293.659L231.025 294.03L230.876 294.401L230.727 294.772L230.579 295.143L230.43 295.514L230.281 295.884L230.132 296.255L229.984 296.626L229.835 296.997L229.686 297.368L229.537 297.739L229.388 298.11L229.24 298.481L229.091 298.851L228.942 299.222L228.793 299.593L228.645 299.964L228.496 300.335L228.347 300.706L228.198 301.077L228.049 301.448L227.752 302.115L227.603 302.486L227.454 302.857L227.305 303.228L227.157 303.599L227.008 303.97L226.859 304.341L226.71 304.711L226.562 305.082L226.413 305.453L226.264 305.824L226.115 306.195L225.966 306.417L225.818 306.788L225.669 307.159L225.52 307.53L225.223 308.198L225.074 308.569L224.925 308.939L224.627 309.607L224.479 309.978H231.918L232.067 309.607L232.215 309.236L232.364 308.865L232.513 308.494L232.662 308.124L232.81 307.753L232.959 307.382L233.108 307.011L233.406 306.343L233.554 305.972L233.703 305.602L233.852 305.231L234.001 304.86L234.149 304.489H244.862L245.011 304.86L245.159 305.231L245.308 305.602L245.457 305.972L245.606 306.343L245.755 306.714L245.903 307.085L246.052 307.456L246.201 307.827L246.35 308.198L246.498 308.569L246.647 308.939L246.796 309.31L246.945 309.681L247.094 310.052ZM221.131 306.714L221.429 306.492L221.652 306.343V294.03H209.377V299.519H214.882V303.228L214.585 303.45L214.287 303.599L213.915 303.747L213.618 303.895L213.246 304.044L212.874 304.118L212.502 304.192L212.13 304.266L211.758 304.341L211.386 304.415L210.939 304.489L210.493 304.563H209.824L209.377 304.489L209.005 304.415L208.633 304.341L208.261 304.266L207.889 304.118L207.517 303.97L207.145 303.821L206.774 303.673L206.402 303.525L206.104 303.302L205.806 303.08L205.509 302.857L205.211 302.634L204.914 302.412L204.691 302.115L204.393 301.819L204.17 301.522L203.947 301.225L203.575 300.632L203.352 300.261L203.203 299.89L203.054 299.519L202.608 299.667L202.459 299.297L202.384 298.926L202.31 298.555L202.236 298.184V295.439L202.31 294.994L202.384 294.623L202.459 294.253L202.608 293.882L202.756 293.511L202.905 293.14L203.054 292.769L203.277 292.472L203.426 292.101L203.649 291.805L203.872 291.508L204.095 291.211L204.393 290.915L204.616 290.618L204.914 290.395L205.211 290.173L205.509 289.95L205.806 289.728L206.104 289.505L206.402 289.283L206.774 289.134L207.071 288.244L207.443 288.096L207.815 287.948L208.187 287.873L208.559 287.799L208.931 287.725L209.303 287.651H210.121L210.567 287.725L211.014 287.799L211.386 287.873L211.758 287.948L212.13 288.022L212.502 288.096L212.874 288.244L213.246 288.393L213.543 288.541L213.841 288.689L214.138 288.838L214.51 289.06L214.808 289.283L215.105 289.505L215.403 289.728L215.7 289.95L215.998 290.173L216.296 290.47L216.593 290.692L216.816 290.395L217.114 290.099L217.337 289.802L217.635 289.505L217.858 289.209L218.081 288.912L218.379 288.615L218.602 288.318L218.899 288.022L219.122 287.725L219.346 287.428L219.643 287.132L219.866 286.835L220.09 286.538L220.387 286.241L220.61 285.945L220.908 285.648L221.131 285.351L220.833 285.129L220.536 284.832L220.238 284.61L219.941 284.387L219.643 284.165L219.346 283.942L218.974 283.719L218.676 283.497L218.304 283.274L218.007 283.052L217.635 282.904L217.263 282.681L216.891 282.533L216.221 282.236L215.849 282.088L215.552 281.939L215.18 281.865L214.808 281.717L214.436 281.643L214.064 281.568L213.692 281.494L213.32 281.42L212.948 281.346L212.576 281.272L212.13 281.197L211.758 281.123H211.386L210.939 281.049L210.493 280.975H208.931L208.559 281.049L208.187 281.123L207.815 281.197L207.443 281.272L207.071 281.346L206.699 281.42L206.327 281.494L205.955 281.643L205.583 281.717L205.211 281.865L204.839 281.939L204.467 282.088L204.095 282.236L203.798 282.384L203.426 282.607L203.054 282.755L202.682 282.904L202.31 283.126L201.938 283.349L201.566 283.571L201.269 283.794L200.971 284.016L200.673 284.239L200.376 284.461L200.078 284.684L199.781 284.906L199.483 285.203L199.186 285.426L198.888 285.722L198.59 286.019L198.367 286.316L198.07 286.612L197.847 286.909L197.623 287.206L197.4 287.502L197.177 287.799L196.954 288.096L196.731 288.393L196.582 288.689L196.359 288.986L196.136 289.357L195.987 289.728L195.838 290.099L195.689 290.47L195.54 290.84L195.392 291.211L195.243 291.582L195.094 291.953L194.945 292.324L194.871 292.695L194.722 293.066L194.648 293.437L194.573 293.807L194.499 294.178L194.425 294.623V297.813L194.499 298.184V298.555L194.573 298.926V299.297L194.648 299.667L194.797 300.038L194.871 300.409L195.02 300.78L195.094 301.151L195.243 301.522L195.392 301.819L195.54 302.189L195.689 302.56L195.838 302.931L195.987 303.302L196.21 303.599L196.433 303.97L196.582 304.266L196.805 304.563L197.028 304.86L197.251 305.156L197.475 305.453L197.698 305.75L197.921 306.047L198.219 306.343L198.516 306.64L198.814 306.863L199.111 307.159L199.409 307.382L199.706 307.604L200.004 307.827L200.301 308.049L200.599 308.272L200.897 308.494L201.194 308.717L201.566 308.939L201.864 309.088L202.236 309.31L202.608 309.459L202.98 309.607L203.352 309.755L203.723 309.904L204.095 310.052L204.467 310.2L204.839 310.349L205.211 310.423L205.583 310.497L205.955 310.571L206.327 310.646L206.699 310.72L207.071 310.794L207.443 310.868L207.815 310.942L208.187 311.016L208.633 311.091L209.005 311.165H210.196L210.642 311.091L211.014 311.016L211.46 310.942L211.832 310.868L212.278 310.794L212.65 310.72L213.022 310.646L213.394 310.571L213.766 310.497L214.138 310.423L214.51 310.275L214.882 310.126L215.254 309.978L215.626 309.83L215.998 309.681L216.37 309.533L216.742 309.385L217.114 309.236L217.486 309.088L217.858 308.865L218.23 308.717L218.602 308.494L218.974 308.272L219.346 308.049L219.643 307.827L219.941 307.604L220.238 307.382L220.536 307.159L220.833 306.937L221.131 306.714ZM225.669 220.299H209.303V247.744H226.562V260.354H195.392V169.339H226.338V181.949H209.303V207.689H225.669V220.299ZM326.395 243.59V223.043V222.969H339.934V244.183C339.934 255.532 334.354 261.096 323.047 261.096H316.203C304.895 261.096 299.316 255.532 299.316 244.183V185.436C299.316 174.087 304.895 168.524 316.203 168.524H322.973C334.28 168.524 339.711 174.013 339.711 185.287V203.906H326.097V186.103C326.097 182.469 324.386 180.763 320.89 180.763H318.583C314.938 180.763 313.227 182.469 313.227 186.103V243.59C313.227 247.225 314.938 248.931 318.583 248.931H321.187C324.684 248.931 326.395 247.225 326.395 243.59ZM292.1 169.339H278.189V260.354H292.1V169.339ZM252.822 215.106C256.318 215.106 258.029 213.4 258.029 209.766V186.919C258.029 183.285 256.318 181.579 252.822 181.579H247.094V215.106H252.822ZM233.257 169.339H255.053C266.361 169.339 271.94 174.903 271.94 186.252V210.433C271.94 221.782 266.361 227.345 255.053 227.345H247.168V260.354H233.257V169.339ZM307.648 342.616H228.124L267.105 355.967L307.648 342.616Z" fill="white"/>
<path d="M570.223 184.372C570.223 193.963 568.491 202.253 565.026 209.239C561.561 216.226 556.808 221.614 550.766 225.403C544.725 229.192 537.825 231.087 530.066 231.087C522.307 231.087 515.406 229.192 509.365 225.403C503.324 221.614 498.57 216.226 495.105 209.239C491.641 202.253 489.908 193.963 489.908 184.372C489.908 174.78 491.641 166.491 495.105 159.504C498.57 152.518 503.324 147.13 509.365 143.34C515.406 139.551 522.307 137.656 530.066 137.656C537.825 137.656 544.725 139.551 550.766 143.34C556.808 147.13 561.561 152.518 565.026 159.504C568.491 166.491 570.223 174.78 570.223 184.372ZM559.562 184.372C559.562 176.497 558.244 169.851 555.608 164.433C553.002 159.016 549.463 154.916 544.991 152.133C540.549 149.35 535.574 147.959 530.066 147.959C524.557 147.959 519.567 149.35 515.095 152.133C510.653 154.916 507.114 159.016 504.479 164.433C501.872 169.851 500.569 176.497 500.569 184.372C500.569 192.246 501.872 198.892 504.479 204.31C507.114 209.728 510.653 213.828 515.095 216.611C519.567 219.393 524.557 220.785 530.066 220.785C535.574 220.785 540.549 219.393 544.991 216.611C549.463 213.828 553.002 209.728 555.608 204.31C558.244 198.892 559.562 192.246 559.562 184.372Z" fill="white"/>
<path d="M596.246 188.806V229.838H585.762V161.63H595.89V172.287H596.779C598.378 168.823 600.806 166.041 604.064 163.939C607.322 161.807 611.527 160.742 616.68 160.742C621.3 160.742 625.342 161.689 628.807 163.584C632.272 165.449 634.967 168.291 636.892 172.11C638.817 175.899 639.779 180.695 639.779 186.497V229.838H629.296V187.208C629.296 181.849 627.904 177.675 625.12 174.685C622.336 171.665 618.516 170.156 613.659 170.156C610.313 170.156 607.322 170.881 604.686 172.332C602.08 173.782 600.022 175.899 598.511 178.682C597.001 181.464 596.246 184.839 596.246 188.806Z" fill="white"/>
<path d="M667.856 138.898V229.842H657.373V138.898H667.856Z" fill="white"/>
<path d="M685.493 229.841V161.633H695.977V229.841H685.493ZM690.824 150.265C688.78 150.265 687.018 149.569 685.537 148.178C684.086 146.786 683.361 145.114 683.361 143.16C683.361 141.206 684.086 139.533 685.537 138.142C687.018 136.75 688.78 136.055 690.824 136.055C692.867 136.055 694.614 136.75 696.065 138.142C697.546 139.533 698.287 141.206 698.287 143.16C698.287 145.114 697.546 146.786 696.065 148.178C694.614 149.569 692.867 150.265 690.824 150.265Z" fill="white"/>
<path d="M724.099 188.806V229.838H713.615V161.63H723.744V172.287H724.632C726.231 168.823 728.66 166.041 731.917 163.939C735.175 161.807 739.38 160.742 744.533 160.742C749.153 160.742 753.195 161.689 756.66 163.584C760.125 165.449 762.82 168.291 764.745 172.11C766.67 175.899 767.633 180.695 767.633 186.497V229.838H757.149V187.208C757.149 181.849 755.757 177.675 752.973 174.685C750.19 171.665 746.369 170.156 741.512 170.156C738.166 170.156 735.175 170.881 732.539 172.332C729.933 173.782 727.875 175.899 726.364 178.682C724.854 181.464 724.099 184.839 724.099 188.806Z" fill="white"/>
<path d="M813.833 231.259C807.258 231.259 801.587 229.808 796.819 226.907C792.081 223.976 788.423 219.891 785.847 214.651C783.3 209.381 782.027 203.253 782.027 196.266C782.027 189.28 783.3 183.122 785.847 177.794C788.423 172.435 792.007 168.261 796.597 165.271C801.217 162.251 806.607 160.742 812.767 160.742C816.32 160.742 819.83 161.334 823.295 162.518C826.76 163.702 829.914 165.626 832.757 168.291C835.6 170.925 837.865 174.419 839.553 178.77C841.241 183.122 842.085 188.481 842.085 194.845V199.286H789.489V190.227H831.424C831.424 186.379 830.654 182.945 829.114 179.925C827.604 176.905 825.442 174.522 822.628 172.776C819.845 171.029 816.557 170.156 812.767 170.156C808.591 170.156 804.978 171.192 801.928 173.264C798.907 175.307 796.582 177.971 794.953 181.257C793.325 184.543 792.51 188.066 792.51 191.826V197.865C792.51 203.016 793.399 207.383 795.175 210.965C796.982 214.517 799.484 217.226 802.683 219.091C805.881 220.927 809.598 221.844 813.833 221.844C816.587 221.844 819.075 221.46 821.296 220.69C823.546 219.891 825.486 218.706 827.115 217.137C828.744 215.539 830.002 213.555 830.891 211.187L841.019 214.029C839.953 217.463 838.161 220.483 835.644 223.088C833.127 225.663 830.017 227.676 826.315 229.127C822.613 230.548 818.453 231.259 813.833 231.259Z" fill="white"/>
<path d="M543.215 303.807C542.682 299.307 540.52 295.814 536.729 293.327C532.938 290.84 528.289 289.597 522.78 289.597C518.753 289.597 515.229 290.248 512.208 291.551C509.217 292.854 506.877 294.645 505.189 296.924C503.531 299.204 502.702 301.794 502.702 304.695C502.702 307.123 503.279 309.21 504.434 310.956C505.619 312.674 507.129 314.109 508.965 315.264C510.801 316.389 512.726 317.321 514.74 318.061C516.754 318.772 518.605 319.349 520.293 319.793L529.533 322.28C531.902 322.902 534.537 323.76 537.44 324.856C540.372 325.951 543.17 327.446 545.835 329.341C548.53 331.206 550.752 333.604 552.499 336.534C554.246 339.465 555.12 343.062 555.12 347.325C555.12 352.239 553.831 356.68 551.255 360.647C548.708 364.614 544.977 367.767 540.061 370.106C535.174 372.444 529.236 373.614 522.247 373.614C515.732 373.614 510.091 372.563 505.323 370.461C500.584 368.359 496.853 365.428 494.128 361.668C491.433 357.909 489.908 353.542 489.553 348.569H500.925C501.221 352.003 502.376 354.845 504.39 357.095C506.433 359.315 509.01 360.973 512.119 362.068C515.258 363.134 518.634 363.667 522.247 363.667C526.453 363.667 530.229 362.986 533.575 361.624C536.921 360.233 539.572 358.308 541.527 355.851C543.481 353.364 544.458 350.463 544.458 347.148C544.458 344.128 543.614 341.671 541.926 339.776C540.238 337.881 538.017 336.342 535.263 335.158C532.509 333.974 529.533 332.938 526.334 332.049L515.14 328.852C508.032 326.809 502.406 323.893 498.259 320.104C494.113 316.315 492.04 311.356 492.04 305.228C492.04 300.136 493.417 295.696 496.172 291.906C498.955 288.087 502.687 285.127 507.366 283.025C512.075 280.893 517.331 279.828 523.136 279.828C529 279.828 534.212 280.879 538.772 282.981C543.333 285.053 546.946 287.895 549.611 291.507C552.306 295.118 553.728 299.218 553.876 303.807H543.215Z" fill="white"/>
<path d="M598.855 373.431C592.281 373.431 586.61 371.98 581.842 369.079C577.103 366.148 573.446 362.063 570.87 356.823C568.323 351.554 567.049 345.425 567.049 338.439C567.049 331.452 568.323 325.295 570.87 319.966C573.446 314.608 577.029 310.433 581.62 307.443C586.24 304.424 591.629 302.914 597.789 302.914C601.343 302.914 604.852 303.506 608.317 304.69C611.782 305.874 614.936 307.799 617.779 310.463C620.622 313.098 622.888 316.591 624.576 320.943C626.264 325.295 627.108 330.653 627.108 337.018V341.459H574.512V332.4H616.447C616.447 328.551 615.677 325.117 614.137 322.097C612.626 319.078 610.464 316.695 607.651 314.948C604.867 313.201 601.58 312.328 597.789 312.328C593.614 312.328 590.001 313.364 586.95 315.436C583.93 317.479 581.605 320.144 579.976 323.43C578.347 326.716 577.533 330.239 577.533 333.998V340.038C577.533 345.189 578.421 349.555 580.198 353.137C582.005 356.69 584.507 359.399 587.705 361.264C590.904 363.099 594.621 364.017 598.855 364.017C601.61 364.017 604.097 363.632 606.318 362.862C608.569 362.063 610.509 360.879 612.138 359.31C613.766 357.711 615.025 355.728 615.913 353.359L626.042 356.201C624.976 359.635 623.184 362.655 620.667 365.26C618.149 367.836 615.04 369.849 611.338 371.299C607.636 372.72 603.475 373.431 598.855 373.431Z" fill="white"/>
<path d="M641.492 372.008V303.8H651.62V314.102H652.331C653.575 310.727 655.825 307.989 659.083 305.887C662.34 303.785 666.013 302.734 670.1 302.734C670.869 302.734 671.832 302.749 672.987 302.779C674.142 302.808 675.016 302.853 675.608 302.912V313.569C675.252 313.481 674.438 313.347 673.165 313.17C671.921 312.963 670.603 312.859 669.211 312.859C665.894 312.859 662.933 313.555 660.327 314.946C657.75 316.308 655.707 318.202 654.196 320.63C652.716 323.028 651.975 325.766 651.975 328.845V372.008H641.492Z" fill="white"/>
<path d="M744.342 303.805L719.11 372.013H708.449L683.217 303.805H694.589L713.424 358.158H714.135L732.97 303.805H744.342Z" fill="white"/>
<path d="M756.616 372.013V303.805H767.1V372.013H756.616ZM761.947 292.437C759.903 292.437 758.141 291.741 756.66 290.35C755.209 288.959 754.484 287.286 754.484 285.332C754.484 283.378 755.209 281.706 756.66 280.314C758.141 278.923 759.903 278.227 761.947 278.227C763.99 278.227 765.737 278.923 767.188 280.314C768.669 281.706 769.409 283.378 769.409 285.332C769.409 287.286 768.669 288.959 767.188 290.35C765.737 291.741 763.99 292.437 761.947 292.437Z" fill="white"/>
<path d="M812.457 373.431C806.06 373.431 800.552 371.921 795.932 368.902C791.312 365.882 787.758 361.723 785.27 356.423C782.783 351.124 781.539 345.07 781.539 338.261C781.539 331.334 782.812 325.221 785.359 319.922C787.936 314.593 791.519 310.433 796.109 307.443C800.729 304.424 806.119 302.914 812.279 302.914C817.077 302.914 821.4 303.802 825.25 305.578C829.1 307.355 832.254 309.841 834.712 313.039C837.17 316.236 838.695 319.966 839.288 324.229H828.804C828.004 321.12 826.227 318.367 823.473 315.969C820.749 313.542 817.077 312.328 812.457 312.328C808.37 312.328 804.786 313.394 801.707 315.525C798.656 317.627 796.272 320.602 794.555 324.451C792.867 328.27 792.023 332.755 792.023 337.906C792.023 343.176 792.852 347.764 794.51 351.672C796.198 355.58 798.567 358.614 801.618 360.775C804.698 362.936 808.311 364.017 812.457 364.017C815.181 364.017 817.654 363.543 819.875 362.596C822.096 361.649 823.977 360.287 825.517 358.511C827.057 356.734 828.152 354.603 828.804 352.116H839.288C838.695 356.142 837.229 359.769 834.89 362.996C832.58 366.193 829.515 368.739 825.694 370.633C821.904 372.498 817.491 373.431 812.457 373.431Z" fill="white"/>
<path d="M881.658 373.431C875.084 373.431 869.413 371.98 864.645 369.079C859.906 366.148 856.249 362.063 853.672 356.823C851.126 351.554 849.852 345.425 849.852 338.439C849.852 331.452 851.126 325.295 853.672 319.966C856.249 314.608 859.832 310.433 864.423 307.443C869.042 304.424 874.432 302.914 880.592 302.914C884.146 302.914 887.655 303.506 891.12 304.69C894.585 305.874 897.739 307.799 900.582 310.463C903.425 313.098 905.691 316.591 907.379 320.943C909.067 325.295 909.911 330.653 909.911 337.018V341.459H857.315V332.4H899.249C899.249 328.551 898.479 325.117 896.939 322.097C895.429 319.078 893.267 316.695 890.454 314.948C887.67 313.201 884.383 312.328 880.592 312.328C876.417 312.328 872.804 313.364 869.753 315.436C866.733 317.479 864.408 320.144 862.779 323.43C861.15 326.716 860.336 330.239 860.336 333.998V340.038C860.336 345.189 861.224 349.555 863.001 353.137C864.808 356.69 867.31 359.399 870.508 361.264C873.707 363.099 877.423 364.017 881.658 364.017C884.412 364.017 886.9 363.632 889.121 362.862C891.372 362.063 893.312 360.879 894.941 359.31C896.569 357.711 897.828 355.728 898.716 353.359L908.845 356.201C907.778 359.635 905.987 362.655 903.47 365.26C900.952 367.836 897.843 369.849 894.141 371.299C890.439 372.72 886.278 373.431 881.658 373.431Z" fill="white"/>
<path d="M972.625 319.078L963.207 321.742C962.615 320.173 961.741 318.649 960.586 317.168C959.461 315.659 957.921 314.415 955.967 313.438C954.012 312.461 951.51 311.973 948.459 311.973C944.284 311.973 940.804 312.935 938.02 314.859C935.266 316.754 933.889 319.167 933.889 322.097C933.889 324.703 934.836 326.76 936.732 328.27C938.627 329.78 941.589 331.038 945.616 332.044L955.744 334.531C961.845 336.011 966.391 338.276 969.382 341.325C972.373 344.345 973.869 348.238 973.869 353.004C973.869 356.912 972.743 360.405 970.493 363.484C968.271 366.563 965.162 368.99 961.164 370.767C957.166 372.543 952.516 373.431 947.215 373.431C940.256 373.431 934.496 371.921 929.935 368.902C925.375 365.882 922.487 361.471 921.273 355.669L931.223 353.182C932.171 356.853 933.963 359.606 936.599 361.441C939.264 363.277 942.744 364.194 947.038 364.194C951.924 364.194 955.804 363.158 958.676 361.086C961.579 358.984 963.03 356.468 963.03 353.537C963.03 351.169 962.2 349.185 960.542 347.587C958.884 345.958 956.337 344.745 952.901 343.945L941.529 341.281C935.281 339.801 930.69 337.506 927.759 334.398C924.856 331.26 923.405 327.337 923.405 322.63C923.405 318.782 924.486 315.377 926.648 312.417C928.839 309.456 931.816 307.133 935.577 305.445C939.367 303.758 943.662 302.914 948.459 302.914C955.211 302.914 960.512 304.394 964.362 307.355C968.242 310.315 970.996 314.223 972.625 319.078Z" fill="white"/>
</svg>
