<svg width="60" height="60" viewBox="0 0 60 60" fill="none" xmlns="http://www.w3.org/2000/svg">
<g clip-path="url(#clip0_12274_67729)">
<path fill-rule="evenodd" clip-rule="evenodd" d="M31.0826 45.4977L46.7537 38.9779V38.978C47.2526 38.7768 47.6764 38.4583 48 38.0615V55.4726C48 56.825 46.9067 57.9214 45.5582 57.9214H14.4418C13.0932 57.9214 12 56.825 12 55.4726V38.1193C12.317 38.4892 12.7237 38.7865 13.1982 38.9778L28.8666 45.4966C29.2198 45.6452 29.5929 45.7206 29.976 45.7206C30.3589 45.7206 30.7322 45.6452 31.0826 45.4977ZM22.2849 52.667C22.2849 53.6475 21.6255 54.3544 20.2006 54.3544C19.003 54.3544 18.0404 53.7312 18.0404 52.515H19.3441C19.3441 53.0546 19.9125 53.1535 20.2991 53.1535C20.7539 53.1535 20.9736 52.9938 20.9736 52.7354C20.9736 52.4921 20.6932 52.3934 20.193 52.2261L19.3289 51.9373C18.9499 51.8081 18.1768 51.466 18.1768 50.4855C18.1768 49.4669 18.9423 48.8056 20.2006 48.8056C21.3754 48.8056 22.2319 49.4061 22.2319 50.6299H20.9206C20.9206 50.2042 20.5644 50.0066 20.1399 50.0066C19.7382 50.0066 19.5032 50.1587 19.5032 50.417C19.5032 50.6679 19.6927 50.7439 20.0414 50.8655L20.8827 51.1544C21.724 51.4432 22.2849 51.7548 22.2849 52.667ZM25.561 54.2404H24.2574V50.0598H22.8324V48.9196H26.9784V50.0598H25.561V54.2404ZM28.897 52.477C28.897 52.781 29.132 53.1535 29.7459 53.1535C30.3674 53.1535 30.5949 52.781 30.5949 52.477V50.6755C30.5949 50.3791 30.3674 50.0066 29.7459 50.0066C29.132 50.0066 28.897 50.3791 28.897 50.6755V52.477ZM31.8985 52.4313C31.8985 53.6475 31.0572 54.3544 29.7459 54.3544C28.4422 54.3544 27.5933 53.6475 27.5933 52.4313V50.7439C27.5933 49.5125 28.4422 48.8056 29.7459 48.8056C31.0572 48.8056 31.8985 49.5125 31.8985 50.7439V52.4313ZM34.3484 54.2404H33.0447V48.9196H35.3717C36.5086 48.9196 37.0846 49.5506 37.0846 50.6071C37.0846 51.2988 36.7815 51.8461 36.2736 52.1501L37.2514 53.8147V54.2404H35.9856L34.8941 52.2945H34.3484V54.2404ZM34.3484 50.0598V51.2152H35.1518C35.5384 51.2152 35.7657 51.0935 35.7657 50.6299C35.7657 50.1814 35.5384 50.0598 35.1518 50.0598H34.3484ZM41.8107 54.2404H38.2483V48.9196H41.7955V50.0598H39.552V51.0327H41.4469V52.1121H39.552V53.1002H41.8107V54.2404Z" fill="white"/>
<path fill-rule="evenodd" clip-rule="evenodd" d="M45.5582 3H14.4418C13.0932 3 12 4.09193 12 5.43893V35.814C12 36.785 12.5919 37.6583 13.4945 38.019L29.1692 44.5142C29.7006 44.7368 30.2993 44.7368 30.8307 44.5142L46.5055 38.019C47.4081 37.6583 48 36.7851 48 35.814V5.43893C48 4.09193 46.9067 3 45.5582 3ZM29.9953 41.3139L23.0458 38.5182H36.9246L29.9953 41.3139ZM17.3374 8.94928V24.8675H22.8016V22.6617H19.7735V17.8635H22.6423V15.6577H19.7735V11.1551H22.7561V8.94928H17.3374ZM26.4188 19.0914H27.8076C29.7883 19.0914 30.7673 18.1136 30.7673 16.1352V11.9055C30.7673 9.92711 29.7883 8.94928 27.8076 8.94928H23.9827V24.8675H26.4188V19.0914ZM28.3312 12.0192V16.0215C28.3312 16.6582 28.0352 16.9538 27.4205 16.9538H26.4188V11.0869H27.4205C28.0352 11.0869 28.3312 11.3825 28.3312 12.0192ZM34.3097 8.94928H31.8735V24.8675H34.3097V8.94928ZM40.3624 18.341V21.9339C40.3624 22.5707 40.0664 22.8663 39.4517 22.8663H38.9963C38.3589 22.8663 38.0629 22.5707 38.0629 21.9339V11.8828C38.0629 11.2461 38.3589 10.9504 38.9963 10.9504H39.4061C40.0209 10.9504 40.3168 11.2461 40.3168 11.8828V14.9982H42.7074V11.7463C42.7074 9.76792 41.7512 8.81283 39.7705 8.81283H38.5865C36.6058 8.81283 35.6268 9.79066 35.6268 11.769V22.0477C35.6268 24.0261 36.6058 25.0039 38.5865 25.0039H39.7932C41.774 25.0039 42.7529 24.0261 42.7529 22.0477V18.341H40.3624ZM19.8047 31.6859C20.692 31.6859 21.4116 31.3693 21.9286 30.9585V28.8367H19.679V29.7931H20.6431V30.3657C20.4405 30.4937 20.189 30.561 19.8606 30.561C19.0851 30.561 18.5332 30.0154 18.5332 29.2543V29.2408C18.5332 28.5201 19.0781 27.9475 19.7838 27.9475C20.2658 27.9475 20.6151 28.1092 20.9645 28.3921L21.7609 27.4693C21.2439 27.0382 20.6361 26.7823 19.7768 26.7823C18.2607 26.7823 17.1429 27.86 17.1429 29.2341V29.2475C17.1429 30.6756 18.2817 31.6859 19.8047 31.6859ZM22.2888 31.5916H23.714L24.0633 30.7496H25.9496L26.306 31.5916H27.7591L25.6772 26.8428H24.3707L22.2888 31.5916ZM24.4615 29.7326L25.0134 28.3921L25.5584 29.7326H24.4615ZM29.5611 31.5916H28.2336V26.8765H29.6659L30.8325 28.7019L31.9993 26.8765H33.4315V31.5916H32.0831V28.8838L30.8325 30.7294H30.8046L29.5611 28.8973V31.5916ZM34.299 31.5916H38.2672V30.4802H35.6403V29.7326H37.9877V28.7019H35.6403V27.988H38.2323V26.8765H34.299V31.5916ZM42.8572 30.1367C42.8572 31.0999 42.0677 31.6724 40.8801 31.6724C40.0137 31.6724 39.1894 31.4097 38.5886 30.8911L39.3431 30.0222C39.8251 30.3926 40.363 30.588 40.929 30.588C41.2922 30.588 41.4879 30.4667 41.4879 30.2646V30.2512C41.4879 30.0558 41.3272 29.9481 40.6635 29.7999C39.6225 29.5708 38.8191 29.2879 38.8191 28.318V28.3045C38.8191 27.4289 39.5387 26.7957 40.7124 26.7957C41.5437 26.7957 42.1935 27.0112 42.7244 27.4221L42.0468 28.3449C41.5997 28.0418 41.1106 27.8802 40.6775 27.8802C40.3491 27.8802 40.1884 28.0149 40.1884 28.1833V28.1967C40.1884 28.4123 40.3561 28.5066 41.0338 28.6548C42.1586 28.8905 42.8572 29.2408 42.8572 30.1232V30.1367Z" fill="white"/>
</g>
<defs>
<clipPath id="clip0_12274_67729">
<rect width="36" height="54.9213" fill="white" transform="translate(12 3)"/>
</clipPath>
</defs>
</svg>
