<svg width="24" height="24" viewBox="0 0 24 24" fill="none" xmlns="http://www.w3.org/2000/svg">
<path fill-rule="evenodd" clip-rule="evenodd" d="M17.75 10.2637C18.2249 10.3162 18.6552 10.5165 18.994 10.8176C18.669 10.773 18.3372 10.75 18 10.75C16.6581 10.75 15.4014 11.1145 14.3235 11.75H6.5C6.08579 11.75 5.75 12.0858 5.75 12.5V19.5C5.75 19.9142 6.08579 20.25 6.5 20.25H11.1059C11.2786 20.7794 11.5105 21.282 11.7939 21.75H6.5C5.25736 21.75 4.25 20.7426 4.25 19.5V12.5C4.25 11.3419 5.12501 10.3881 6.25 10.2637V8C6.25 4.82436 8.82436 2.25 12 2.25C15.1756 2.25 17.75 4.82436 17.75 8V10.2637ZM7.75 8C7.75 5.65279 9.65279 3.75 12 3.75C14.3472 3.75 16.25 5.65279 16.25 8V10.25H7.75V8Z" fill="white" fill-opacity="0.72"/>
<path fill-rule="evenodd" clip-rule="evenodd" d="M18 12.25C14.8244 12.25 12.25 14.8244 12.25 18C12.25 21.1756 14.8244 23.75 18 23.75C21.1756 23.75 23.75 21.1756 23.75 18C23.75 14.8244 21.1756 12.25 18 12.25ZM17.25 16.5C17.25 16.0858 17.5858 15.75 18 15.75C18.4142 15.75 18.75 16.0858 18.75 16.5C18.75 16.9142 18.4142 17.25 18 17.25C17.5858 17.25 17.25 17.5858 17.25 18V18.5C17.25 18.9142 17.5858 19.25 18 19.25C18.3714 19.25 18.6797 18.98 18.7395 18.6256C19.6189 18.3197 20.25 17.4836 20.25 16.5C20.25 15.2574 19.2426 14.25 18 14.25C16.7574 14.25 15.75 15.2574 15.75 16.5C15.75 16.9142 16.0858 17.25 16.5 17.25C16.9142 17.25 17.25 16.9142 17.25 16.5ZM18 22C18.5523 22 19 21.5523 19 21C19 20.4477 18.5523 20 18 20C17.4477 20 17 20.4477 17 21C17 21.5523 17.4477 22 18 22Z" fill="white" fill-opacity="0.72"/>
</svg>
