<svg width="24" height="24" viewBox="0 0 24 24" fill="none" xmlns="http://www.w3.org/2000/svg">
<path fill-rule="evenodd" clip-rule="evenodd" d="M21.75 8.01363V11.7939C21.282 11.5105 20.7794 11.2786 20.25 11.1059V9.27464L17.572 10.7624C15.4368 10.8867 13.5497 11.935 12.3047 13.5134C11.8298 13.5782 11.339 13.4907 10.9073 13.2509L3.75001 9.27464V17.5C3.75001 17.9142 4.0858 18.25 4.50001 18.25H10.7542C10.7717 18.7655 10.843 19.2673 10.9626 19.75H4.50001C3.25737 19.75 2.25001 18.7426 2.25001 17.5V8.01362C2.24983 8.0041 2.24983 7.99456 2.25001 7.98502V6.5C2.25001 5.25736 3.25737 4.25 4.50001 4.25H19.5C20.7427 4.25 21.75 5.25736 21.75 6.5V7.98502C21.7502 7.99456 21.7502 8.0041 21.75 8.01363ZM20.25 7.5587V6.5C20.25 6.08579 19.9142 5.75 19.5 5.75H4.50001C4.0858 5.75 3.75001 6.08579 3.75001 6.5V7.5587L11.6358 11.9397C11.8623 12.0655 12.1377 12.0655 12.3642 11.9397L20.25 7.5587Z" fill="white" fill-opacity="0.72"/>
<path fill-rule="evenodd" clip-rule="evenodd" d="M18 12.25C14.8244 12.25 12.25 14.8244 12.25 18C12.25 21.1756 14.8244 23.75 18 23.75C21.1756 23.75 23.75 21.1756 23.75 18C23.75 14.8244 21.1756 12.25 18 12.25ZM17.25 16.5C17.25 16.0858 17.5858 15.75 18 15.75C18.4142 15.75 18.75 16.0858 18.75 16.5C18.75 16.9142 18.4142 17.25 18 17.25C17.5858 17.25 17.25 17.5858 17.25 18V18.5C17.25 18.9142 17.5858 19.25 18 19.25C18.3714 19.25 18.6797 18.98 18.7395 18.6256C19.6189 18.3197 20.25 17.4836 20.25 16.5C20.25 15.2574 19.2426 14.25 18 14.25C16.7574 14.25 15.75 15.2574 15.75 16.5C15.75 16.9142 16.0858 17.25 16.5 17.25C16.9142 17.25 17.25 16.9142 17.25 16.5ZM18 22C18.5523 22 19 21.5523 19 21C19 20.4477 18.5523 20 18 20C17.4477 20 17 20.4477 17 21C17 21.5523 17.4477 22 18 22Z" fill="white" fill-opacity="0.72"/>
</svg>
