<svg width="24" height="24" viewBox="0 0 24 24" fill="none" xmlns="http://www.w3.org/2000/svg">
<path fill-rule="evenodd" clip-rule="evenodd" d="M21.7501 8.01363V11.6286C21.3009 11.3279 20.7674 11.2063 20.2501 11.2639V9.27464L13.0928 13.2509C12.4132 13.6284 11.5869 13.6284 10.9074 13.2509L3.75008 9.27464V17.5C3.75008 17.9142 4.08586 18.25 4.50008 18.25H12.5681L12.4091 18.409C12.095 18.7231 11.8809 19.1232 11.7938 19.5587L11.7556 19.75H4.50008C3.25743 19.75 2.25008 18.7426 2.25008 17.5V8.01362C2.24989 8.0041 2.24989 7.99456 2.25008 7.98502V6.5C2.25008 5.25736 3.25743 4.25 4.50008 4.25H19.5001C20.7427 4.25 21.7501 5.25736 21.7501 6.5V7.98502C21.7503 7.99456 21.7503 8.0041 21.7501 8.01363ZM20.2501 7.5587V6.5C20.2501 6.08579 19.9143 5.75 19.5001 5.75H4.50008C4.08586 5.75 3.75008 6.08579 3.75008 6.5V7.5587L11.6358 11.9397C11.8624 12.0655 12.1378 12.0655 12.3643 11.9397L20.2501 7.5587Z" fill="white" fill-opacity="0.72"/>
<path d="M19.9697 12.9697C20.2626 12.6768 20.7375 12.6768 21.0304 12.9697L23.0304 14.9697C23.3233 15.2626 23.3233 15.7374 23.0304 16.0303L22.0001 17.0607L18.9394 14L19.9697 12.9697Z" fill="white" fill-opacity="0.72"/>
<path d="M18.0001 14.9393L21.0607 18L16.5304 22.5303C16.4257 22.635 16.2924 22.7064 16.1472 22.7354L13.6472 23.2354C13.4013 23.2846 13.1471 23.2076 12.9697 23.0303C12.7924 22.853 12.7155 22.5988 12.7646 22.3529L13.2646 19.8529C13.2937 19.7077 13.365 19.5744 13.4697 19.4697L18.0001 14.9393Z" fill="white" fill-opacity="0.72"/>
</svg>
