<svg width="60" height="60" viewBox="0 0 60 60" fill="none" xmlns="http://www.w3.org/2000/svg">
<path fill-rule="evenodd" clip-rule="evenodd" d="M47.7664 9.99377C47.9397 10.5619 48.0175 11.1551 47.9967 11.7489C47.9996 21.367 47.9967 31.7193 47.9821 41.3257C47.9818 41.7911 47.9448 42.2557 47.8714 42.7152C47.8219 43.1019 47.6455 43.4611 47.3699 43.7361C47.0834 44.0076 46.7493 44.2238 46.3846 44.3738C45.7849 44.623 45.1864 44.8757 44.5883 45.1282C44.2385 45.2758 43.889 45.4234 43.5394 45.5702C41.9827 46.2291 40.4244 46.8826 38.8663 47.5361C36.281 48.6203 33.6963 49.7043 31.1207 50.8122C30.7995 50.9652 30.4507 51.0511 30.0954 51.0647C29.74 51.0782 29.3857 51.0192 29.0538 50.8912C28.9038 50.8323 28.7557 50.7663 28.608 50.7004C28.506 50.6549 28.4041 50.6095 28.3017 50.5665L21.0138 47.495L13.5859 44.3679C13.1719 44.2069 12.8021 43.9492 12.5072 43.6161C12.2584 43.3053 12.1099 42.9257 12.0816 42.528C12.0685 42.4037 12.0547 42.2793 12.0408 42.155C12.027 42.0307 12.0131 41.9064 12 41.782V11.4154C12.0121 11.3389 12.0199 11.2617 12.0233 11.1843C12.0326 10.8542 12.0806 10.5262 12.1662 10.2073C12.245 9.84118 12.4189 9.50249 12.6703 9.22559C12.9217 8.94868 13.2416 8.74342 13.5975 8.63062C14.1577 8.46154 14.7415 8.38449 15.3262 8.40245H44.6734C45.1836 8.39114 45.6932 8.4462 46.1893 8.56627C46.554 8.64422 46.8918 8.8172 47.1686 9.0678C47.4455 9.3184 47.6517 9.63778 47.7664 9.99377ZM22.6029 18.6618C23.0245 19.0833 23.5294 19.2941 24.1176 19.2941C24.7059 19.2941 25.2108 19.0833 25.6324 18.6618C26.0539 18.2402 26.2647 17.7353 26.2647 17.1471C26.2647 16.5588 26.0539 16.0539 25.6324 15.6324C25.2108 15.2108 24.7059 15 24.1176 15C23.5294 15 23.0245 15.2108 22.6029 15.6324C22.1814 16.0539 21.9706 16.5588 21.9706 17.1471C21.9706 17.7353 22.1814 18.2402 22.6029 18.6618ZM35.6618 25.4559C36.0049 25.799 36.4216 25.9706 36.9118 25.9706C37.402 25.9706 37.8186 25.799 38.1618 25.4559C38.5049 25.1127 38.6765 24.6961 38.6765 24.2059C38.6765 23.7157 38.5049 23.299 38.1618 22.9559C37.8186 22.6127 37.402 22.4412 36.9118 22.4412C36.4216 22.4412 36.0049 22.6127 35.6618 22.9559C35.3186 23.299 35.1471 23.7157 35.1471 24.2059C35.1471 24.6961 35.3186 25.1127 35.6618 25.4559ZM22.0588 29.7941V38.3235H26.7647V23.5294L30.6176 31.2647H32.6765L34.4118 29.4118V38.3235H38.5294V33.3235H40V28.4412C40 28.0882 39.8725 27.7843 39.6176 27.5294C39.3627 27.2745 39.0588 27.1471 38.7059 27.1471H34.9118C34.7353 27.1471 34.5637 27.1814 34.3971 27.25C34.2304 27.3186 34.0882 27.4216 33.9706 27.5588L31.8235 29.8529L27.8235 21.6765C27.6667 21.3627 27.4461 21.1176 27.1618 20.9412C26.8775 20.7647 26.5686 20.6765 26.2353 20.6765H21.7647C21.2745 20.6765 20.8578 20.848 20.5147 21.1912C20.1716 21.5343 20 21.951 20 22.4412V29.7941H22.0588Z" fill="white"/>
</svg>
