<svg width="120" height="120" viewBox="0 0 120 120" fill="none" xmlns="http://www.w3.org/2000/svg">
<path fill-rule="evenodd" clip-rule="evenodd" d="M75.0525 44.5157L78.8881 54.0399C79.1841 54.768 79.0125 55.6026 78.4559 56.1531L57.8627 76.7464C57.0991 77.5159 55.8561 77.5159 55.0865 76.7464L40.6553 62.3151C39.8857 61.5516 39.8857 60.3086 40.6553 59.539L61.2485 38.9457C61.8049 38.3892 62.6396 38.2176 63.3676 38.5135L72.8858 42.3493C73.8744 42.7459 74.6558 43.5272 75.0525 44.5157ZM65.4935 51.8832C66.6182 53.0079 68.4414 53.0079 69.5661 51.8832C70.6907 50.7585 70.6907 48.9354 69.5661 47.8107C68.4414 46.686 66.6182 46.686 65.4935 47.8107C64.3688 48.9354 64.3688 50.7585 65.4935 51.8832ZM30.461 16.8047H89.5392C94.258 16.8047 96 18.6174 96 23.5304V82.8155C96 83.3731 96 87.2183 92.2942 89.2507C89.8232 90.6048 80.1581 94.7712 63.2984 101.75C61.8092 102.461 61.09 102.645 60.0009 102.624C58.7768 102.624 58.3178 102.456 56.6871 101.75C39.8388 94.5457 30.1787 90.3784 27.7068 89.2507C24.0002 87.557 24.1761 85.4389 24.0681 84.3669C24.0202 83.8512 23.9976 83.3334 24.0002 82.8155V23.5304C24.0002 18.6174 25.7422 16.8047 30.461 16.8047Z" fill="white"/>
</svg>
