<svg width="24" height="24" viewBox="0 0 24 24" fill="none" xmlns="http://www.w3.org/2000/svg">
<path fill-rule="evenodd" clip-rule="evenodd" d="M17.75 10.2637C18.5186 10.3487 19.1704 10.8208 19.5064 11.4806C19.2907 11.5868 19.0885 11.7296 18.909 11.909L18.25 12.5681V12.5C18.25 12.0858 17.9142 11.75 17.5 11.75H6.5C6.08579 11.75 5.75 12.0858 5.75 12.5V19.5C5.75 19.9142 6.08579 20.25 6.5 20.25H11.6555L11.3555 21.75H6.5C5.25736 21.75 4.25 20.7426 4.25 19.5V12.5C4.25 11.3419 5.12501 10.3881 6.25 10.2637V8C6.25 4.82436 8.82436 2.25 12 2.25C15.1756 2.25 17.75 4.82436 17.75 8V10.2637ZM7.75 8C7.75 5.65279 9.65279 3.75 12 3.75C14.3472 3.75 16.25 5.65279 16.25 8V10.25H7.75V8Z" fill="white" fill-opacity="0.72"/>
<path d="M19.9697 12.9697C20.2626 12.6768 20.7374 12.6768 21.0303 12.9697L23.0303 14.9697C23.3232 15.2626 23.3232 15.7374 23.0303 16.0303L22 17.0607L18.9393 14L19.9697 12.9697Z" fill="white" fill-opacity="0.72"/>
<path d="M18 14.9393L21.0607 18L16.5303 22.5303C16.4256 22.635 16.2923 22.7064 16.1471 22.7354L13.6471 23.2354C13.4012 23.2846 13.147 23.2076 12.9697 23.0303C12.7924 22.853 12.7154 22.5988 12.7646 22.3529L13.2646 19.8529C13.2936 19.7077 13.365 19.5744 13.4697 19.4697L18 14.9393Z" fill="white" fill-opacity="0.72"/>
</svg>
