<svg width="24" height="24" viewBox="0 0 24 24" fill="none" xmlns="http://www.w3.org/2000/svg">
<path fill-rule="evenodd" clip-rule="evenodd" d="M12 2.25C9.37665 2.25 7.25 4.37665 7.25 7C7.25 9.62335 9.37665 11.75 12 11.75C14.6234 11.75 16.75 9.62335 16.75 7C16.75 4.37665 14.6234 2.25 12 2.25ZM8.75 7C8.75 5.20507 10.2051 3.75 12 3.75C13.7949 3.75 15.25 5.20507 15.25 7C15.25 8.79493 13.7949 10.25 12 10.25C10.2051 10.25 8.75 8.79493 8.75 7Z" fill="white" fill-opacity="0.72"/>
<path d="M8.45193 14.25H12.3871C12.227 14.4893 12.0818 14.7393 11.9529 14.9987C11.8322 15.2414 11.7595 15.4954 11.7311 15.75H8.45193C7.64892 15.75 6.94895 16.2965 6.75419 17.0756L5.7276 21.1819C5.62714 21.5837 5.21994 21.8281 4.81809 21.7276C4.41625 21.6271 4.17193 21.2199 4.27239 20.8181L5.29897 16.7118C5.66067 15.265 6.96062 14.25 8.45193 14.25Z" fill="white" fill-opacity="0.72"/>
<path d="M17.9999 14.25C16.5286 14.25 15.2538 15.0972 14.6393 16.3338C14.455 16.7047 14.0048 16.856 13.6339 16.6716C13.263 16.4873 13.1117 16.0372 13.296 15.6662C14.1542 13.9394 15.9375 12.75 17.9999 12.75C19.7505 12.75 21.3002 13.6064 22.2539 14.9229C22.2925 14.5449 22.6118 14.25 23 14.25C23.4142 14.25 23.75 14.5858 23.75 15V17.75H22.4034C22.3929 17.7502 22.3825 17.7502 22.3721 17.75H21C20.5858 17.75 20.25 17.4142 20.25 17C20.25 16.5858 20.5858 16.25 21 16.25H21.3176C20.6888 15.0604 19.4384 14.25 17.9999 14.25Z" fill="white" fill-opacity="0.72"/>
<path d="M13 21.75C13.3881 21.75 13.7074 21.4552 13.7461 21.0773C14.6998 22.3936 16.2494 23.25 17.9999 23.25C20.0624 23.25 21.8456 22.0606 22.7038 20.3338C22.8881 19.9628 22.7369 19.5127 22.3659 19.3284C21.995 19.144 21.5449 19.2953 21.3605 19.6662C20.746 20.9028 19.4712 21.75 17.9999 21.75C16.5614 21.75 15.3111 20.9396 14.6822 19.75H15C15.4142 19.75 15.75 19.4142 15.75 19C15.75 18.5858 15.4142 18.25 15 18.25H13.6277C13.6173 18.2498 13.6069 18.2498 13.5965 18.25H12.25V21C12.25 21.4142 12.5858 21.75 13 21.75Z" fill="white" fill-opacity="0.72"/>
</svg>
