<svg width="24" height="24" viewBox="0 0 24 24" fill="none" xmlns="http://www.w3.org/2000/svg">
<path d="M7.99957 2.25C8.41379 2.25 8.74957 2.58579 8.74957 3V6C8.74957 6.41421 8.41379 6.75 7.99957 6.75C7.58536 6.75 7.24957 6.41421 7.24957 6V3C7.24957 2.58579 7.58536 2.25 7.99957 2.25Z" fill="white" fill-opacity="0.72"/>
<path d="M18.4692 5.53033C17.1053 4.16637 14.8939 4.16637 13.5299 5.53033L12.0299 7.03033C11.737 7.32322 11.2621 7.32322 10.9692 7.03033C10.6763 6.73744 10.6763 6.26256 10.9692 5.96967L12.4692 4.46967C14.419 2.51992 17.5802 2.51992 19.5299 4.46967C21.4797 6.41942 21.4797 9.58058 19.5299 11.5303L18.0299 13.0303C17.737 13.3232 17.2621 13.3232 16.9692 13.0303C16.6763 12.7374 16.6763 12.2626 16.9692 11.9697L18.4692 10.4697C19.8332 9.10571 19.8332 6.89429 18.4692 5.53033Z" fill="white" fill-opacity="0.72"/>
<path d="M2.24957 8C2.24957 7.58579 2.58536 7.25 2.99957 7.25H5.99957C6.41379 7.25 6.74957 7.58579 6.74957 8C6.74957 8.41421 6.41379 8.75 5.99957 8.75H2.99957C2.58536 8.75 2.24957 8.41421 2.24957 8Z" fill="white" fill-opacity="0.72"/>
<path d="M7.0299 10.9697C7.3228 11.2626 7.3228 11.7374 7.0299 12.0303L5.5299 13.5303C4.16594 14.8943 4.16594 17.1057 5.5299 18.4697C6.89386 19.8336 9.10528 19.8336 10.4692 18.4697L11.9692 16.9697C12.2621 16.6768 12.737 16.6768 13.0299 16.9697C13.3228 17.2626 13.3228 17.7374 13.0299 18.0303L11.5299 19.5303C9.58015 21.4801 6.41899 21.4801 4.46924 19.5303C2.5195 17.5806 2.51949 14.4194 4.46924 12.4697L5.96924 10.9697C6.26214 10.6768 6.73701 10.6768 7.0299 10.9697Z" fill="white" fill-opacity="0.72"/>
<path d="M17.2496 16C17.2496 15.5858 17.5854 15.25 17.9996 15.25H20.9996C21.4138 15.25 21.7496 15.5858 21.7496 16C21.7496 16.4142 21.4138 16.75 20.9996 16.75H17.9996C17.5854 16.75 17.2496 16.4142 17.2496 16Z" fill="white" fill-opacity="0.72"/>
<path d="M15.9996 17.25C16.4138 17.25 16.7496 17.5858 16.7496 18V21C16.7496 21.4142 16.4138 21.75 15.9996 21.75C15.5854 21.75 15.2496 21.4142 15.2496 21V18C15.2496 17.5858 15.5854 17.25 15.9996 17.25Z" fill="white" fill-opacity="0.72"/>
</svg>
