<svg width="24" height="24" viewBox="0 0 24 24" fill="none" xmlns="http://www.w3.org/2000/svg">
<path d="M15.5299 10.5305C15.8228 10.2376 15.8228 9.76274 15.5299 9.46985C15.237 9.17695 14.7621 9.17695 14.4692 9.46985L10.9995 12.9395L10.0299 11.9698C9.73698 11.677 9.26211 11.677 8.96921 11.9698C8.67632 12.2627 8.67632 12.7376 8.96921 13.0305L10.4692 14.5305C10.7621 14.8234 11.237 14.8234 11.5299 14.5305L15.5299 10.5305Z" fill="white" fill-opacity="0.72"/>
<path fill-rule="evenodd" clip-rule="evenodd" d="M11.7748 22.2157C11.7748 22.2157 11.7758 22.216 11.9995 21.5002L11.7758 22.216C11.9215 22.2616 12.0776 22.2616 12.2232 22.216L11.9995 21.5002C12.2232 22.216 12.2243 22.2157 12.2243 22.2157L12.2255 22.2153L12.2285 22.2144L12.2366 22.2118L12.2608 22.2038C12.2805 22.1971 12.3073 22.1878 12.3407 22.1757C12.4075 22.1515 12.5007 22.1158 12.6167 22.067C12.8487 21.9694 13.1724 21.819 13.558 21.6016C14.3292 21.1669 15.351 20.4629 16.3825 19.3768C18.4579 17.1915 20.5228 13.5114 20.7321 7.51067C20.7641 6.59465 20.2168 5.77661 19.4014 5.41985L12.9014 2.5761C12.3265 2.32457 11.6726 2.32457 11.0977 2.5761L4.5977 5.41985C3.78224 5.77661 3.23499 6.59465 3.26695 7.51067C3.47633 13.5114 5.54117 17.1915 7.6166 19.3768C8.64813 20.4629 9.66987 21.1669 10.4411 21.6016C10.8267 21.819 11.1504 21.9694 11.3824 22.067C11.4984 22.1158 11.5916 22.1515 11.6584 22.1757C11.6918 22.1878 11.7186 22.1971 11.7383 22.2038L11.7625 22.2118L11.7706 22.2144L11.7735 22.2153L11.7748 22.2157ZM11.6989 3.95033C11.8906 3.86649 12.1085 3.86649 12.3002 3.95033L18.8002 6.79408C19.0767 6.91505 19.2426 7.18321 19.233 7.45836C19.036 13.1056 17.1093 16.4333 15.2948 18.3439C14.3814 19.3056 13.4836 19.9216 12.8215 20.2949C12.4905 20.4815 12.219 20.607 12.0351 20.6844L11.9995 20.6992L11.964 20.6844C11.7801 20.607 11.5086 20.4815 11.1776 20.2949C10.5155 19.9216 9.61769 19.3056 8.70425 18.3439C6.88977 16.4333 4.96309 13.1056 4.76604 7.45836C4.75644 7.18321 4.92243 6.91505 5.19893 6.79408L11.6989 3.95033Z" fill="white" fill-opacity="0.72"/>
</svg>
