<svg width="120" height="120" viewBox="0 0 120 120" fill="none" xmlns="http://www.w3.org/2000/svg">
<path fill-rule="evenodd" clip-rule="evenodd" d="M89.5392 16.8047H30.461C25.7422 16.8047 24.0002 18.6175 24.0002 23.5306V82.818C23.9976 83.336 24.0202 83.8538 24.0681 84.3695C24.0772 84.4597 24.0843 84.5574 24.0919 84.6616C24.174 85.7952 24.3123 87.7024 27.7068 89.2535C30.1787 90.3813 39.8388 94.5487 56.6871 101.753C58.3178 102.459 58.7768 102.627 60.0009 102.627C61.09 102.648 61.8092 102.464 63.2984 101.753C80.1581 94.7742 89.8232 90.6077 92.2942 89.2535C96 87.221 96 83.3757 96 82.818V23.5306C96 18.6175 94.258 16.8047 89.5392 16.8047ZM72.5178 74.212L59.9501 66.6266L47.3824 74.212L50.7176 59.9157L39.6141 50.2968L54.2357 49.0563L59.9501 35.5734L65.6646 49.0563L80.2862 50.2968L69.1827 59.9157L72.5178 74.212Z" fill="white"/>
</svg>
