<svg width="120" height="120" viewBox="0 0 120 120" fill="none" xmlns="http://www.w3.org/2000/svg">
<path fill-rule="evenodd" clip-rule="evenodd" d="M75.3277 55.7709C75.3277 56.461 75.2663 57.1105 75.1847 57.7599L79.4936 61.1088C79.8815 61.4132 79.9836 61.9612 79.7387 62.4077L75.6544 69.4301C75.4093 69.8766 74.8784 70.0593 74.4086 69.8766L69.3237 67.847C68.2618 68.6386 67.1182 69.3286 65.8726 69.836L65.0965 75.2144C65.0353 75.7015 64.6064 76.0669 64.0959 76.0669H55.9273C55.4168 76.0669 54.9879 75.7015 54.9267 75.2144L54.1507 69.836C52.9049 69.3286 51.7614 68.6589 50.6995 67.847L45.6145 69.8766C45.1653 70.039 44.6139 69.8766 44.3688 69.4301L40.2846 62.4077C40.0395 61.9612 40.1416 61.4132 40.5296 61.1088L44.8385 57.7599C44.7568 57.1105 44.6956 56.4407 44.6956 55.7709C44.6956 55.1012 44.7568 54.4314 44.8385 53.7819L40.5296 50.4331C40.1416 50.1287 40.0191 49.5807 40.2846 49.1342L44.3688 42.1118C44.6139 41.6653 45.1448 41.4826 45.6145 41.6653L50.6995 43.6949C51.7614 42.9033 52.9049 42.2133 54.1507 41.7059L54.9267 36.3274C54.9879 35.8403 55.4168 35.475 55.9273 35.475H64.0959C64.6064 35.475 65.0353 35.8403 65.0965 36.3274L65.8726 41.7059C67.1182 42.2133 68.2618 42.883 69.3237 43.6949L74.4086 41.6653C74.8579 41.5029 75.4093 41.6653 75.6544 42.1118L79.7387 49.1342C79.9836 49.5807 79.8815 50.1287 79.4936 50.4331L75.1847 53.7819C75.2663 54.4314 75.3277 55.0809 75.3277 55.7709ZM53.2328 55.9935C53.2328 59.936 56.3717 63.1432 60.2304 63.1432C64.0891 63.1432 67.228 59.936 67.228 55.9935C67.228 52.0509 64.0891 48.8438 60.2304 48.8438C56.3717 48.8438 53.2328 52.0509 53.2328 55.9935ZM30.461 16.8047H89.5392C94.258 16.8047 96 18.6174 96 23.5304V82.8155C96 83.3731 96 87.2183 92.2942 89.2507C89.8232 90.6048 80.1581 94.7712 63.2984 101.75C61.8092 102.461 61.09 102.645 60.0009 102.624C58.7768 102.624 58.3178 102.456 56.6871 101.75C39.8388 94.5457 30.1787 90.3784 27.7068 89.2507C24.0002 87.557 24.1761 85.4388 24.0681 84.3669C24.0202 83.8512 23.9976 83.3334 24.0002 82.8155V23.5304C24.0002 18.6174 25.7422 16.8047 30.461 16.8047Z" fill="white"/>
</svg>
