<svg width="1149" height="513" viewBox="0 0 1149 513" fill="none" xmlns="http://www.w3.org/2000/svg">
<path d="M27.334 256.102H122.83C117.308 287.342 111.797 318.474 106.25 349.797C104.173 349.391 102.18 349.056 100.247 348.602C82.7008 344.633 66.6964 335.656 54.1916 322.768C40.1008 308.504 31.0094 290.089 28.2705 270.263C27.8623 267.477 27.6461 264.654 27.334 261.891V256.102Z" fill="white"/>
<path d="M1065.14 321.405H1054.57V319.958C1054.57 304.737 1054.57 289.512 1054.57 274.282C1054.68 270.888 1054.02 267.513 1052.65 264.403C1051.63 262.221 1050.11 260.313 1048.2 258.836C1046.3 257.36 1044.07 256.357 1041.69 255.911C1033.94 254.026 1025.81 254.442 1018.3 257.108C1009.84 260.134 1005.09 266.365 1003.5 275.048C1003.13 277.165 1002.95 279.31 1002.96 281.458C1002.96 294.219 1002.96 306.969 1002.96 319.73V321.261H992.43V248.52H1002.93V262.609C1003.22 262.454 1003.36 262.418 1003.4 262.346C1006.48 255.899 1011.81 251.917 1018.14 249.19C1025 246.224 1032.19 245.709 1039.54 246.451C1044.05 246.781 1048.45 248 1052.49 250.039C1059.09 253.627 1062.68 259.248 1064.22 266.376C1064.67 268.422 1064.87 270.527 1065.2 272.608L1065.14 321.405Z" fill="white"/>
<path d="M164.109 221.616H34.5391C44.9964 193.342 75.9241 164.973 117.501 163.287C163.316 161.421 197.174 191.142 208.747 221.64H170.328C168.287 233.133 166.27 244.531 164.229 256.048H215.939C216.207 277.683 208.953 298.744 195.406 315.656C181.86 332.569 162.856 344.292 141.622 348.834C145.384 327.617 149.133 306.444 152.871 285.315L164.109 221.616Z" fill="white"/>
<path d="M379.997 308.018C380.548 306.595 381.029 305.339 381.497 304.084C388.317 285.904 395.124 267.753 401.92 249.629C402.009 249.24 402.244 248.901 402.576 248.678C402.909 248.456 403.314 248.369 403.708 248.433C406.47 248.505 409.231 248.505 411.993 248.433C412.43 248.355 412.88 248.448 413.249 248.694C413.619 248.939 413.878 249.317 413.974 249.749C421.042 268.191 428.149 286.618 435.296 305.028C435.597 305.829 435.933 306.631 436.329 307.659L441.54 294.503C447.463 279.394 453.389 264.329 459.321 249.307C459.453 248.971 459.837 248.469 460.101 248.469C463.703 248.409 467.365 248.469 471.171 248.469L468.229 255.645C459.425 277.293 450.62 298.937 441.816 320.576C441.747 320.859 441.578 321.107 441.339 321.274C441.101 321.441 440.809 321.517 440.519 321.485C437.313 321.485 434.119 321.425 430.915 321.485C430.05 321.485 429.774 321.138 429.509 320.433C422.714 302.373 415.919 284.334 409.123 266.314C408.775 265.381 408.415 264.46 407.922 263.24C407.659 263.862 407.503 264.233 407.358 264.616C400.403 283.058 393.467 301.504 386.552 319.954C386.456 320.442 386.172 320.874 385.762 321.157C385.352 321.441 384.847 321.554 384.355 321.473C381.401 321.366 378.435 321.413 375.47 321.473C375.163 321.522 374.849 321.457 374.587 321.289C374.325 321.121 374.135 320.863 374.054 320.564C364.737 296.932 355.408 273.31 346.067 249.702C345.923 249.331 345.815 248.96 345.623 248.422H346.908C349.909 248.422 352.911 248.422 355.912 248.422C356.285 248.373 356.663 248.471 356.965 248.694C357.267 248.917 357.471 249.247 357.533 249.618C362.336 262.303 367.19 274.98 372.096 287.651C374.546 294.029 376.991 300.408 379.432 306.786C379.6 307.097 379.756 307.456 379.997 308.018Z" fill="white"/>
<path d="M661.684 320.932H651.13V319.401C651.13 303.701 651.13 287.994 651.13 272.279C651.13 265.82 648.645 260.677 642.894 257.364C639.911 255.711 636.59 254.75 633.181 254.554C627.384 253.894 621.519 254.898 616.277 257.448C609.217 261.036 605.471 267.1 604.366 274.766C604.099 276.66 603.975 278.571 603.994 280.483C603.994 293.399 603.994 306.317 603.994 319.233V320.872H593.453V248.119H603.982V261.527L604.27 261.634C604.476 261.4 604.664 261.153 604.835 260.892C610.43 251.504 618.954 247.067 629.651 246.278C634.994 245.75 640.387 246.378 645.464 248.119C648.584 249.15 651.432 250.869 653.795 253.146C656.158 255.424 657.976 258.202 659.114 261.276C659.166 261.391 659.226 261.503 659.294 261.61C660.699 259.84 661.959 257.95 663.508 256.348C669.479 250.107 677.671 246.452 686.32 246.169C692.528 245.696 698.762 246.692 704.51 249.076C712.914 252.664 717.368 259.254 718.581 268.14C718.796 269.878 718.893 271.628 718.869 273.379C718.869 288.855 718.869 304.323 718.869 319.784V321.302H708.315V319.939C708.315 304.714 708.315 289.489 708.315 274.252C708.277 271.549 707.849 268.867 707.043 266.287C705.398 260.916 701.508 257.603 696.165 256.108C689.674 254.185 682.752 254.264 676.307 256.336C667.903 259.087 663.269 265.151 662.032 273.81C661.827 275.396 661.73 276.994 661.743 278.594C661.743 292.196 661.743 305.791 661.743 319.377L661.684 320.932Z" fill="white"/>
<path d="M937.397 323.772C930.444 323.902 923.546 322.574 917.147 319.873C912.395 317.859 908.157 314.806 904.755 310.941C901.353 307.075 898.863 302.497 897.474 297.544C894.829 288.984 894.938 279.814 897.779 271.316C901.212 260.958 908.017 253.507 918.247 249.608C924.498 247.09 931.186 245.835 937.928 245.918C944.67 246 951.326 247.417 957.507 250.086C969.516 255.193 976.204 264.761 978.397 277.451C979.918 285.413 979.083 293.644 976.001 301.144C971.124 312.709 962.181 319.443 950.117 322.361C945.942 323.316 941.673 323.789 937.397 323.772ZM937.397 315.209C940.097 314.886 942.828 314.755 945.482 314.192C955.392 312.111 962.587 306.598 966.333 297.053C968.635 291.056 969.173 284.532 967.893 278.24C966.02 268.17 960.488 260.886 950.765 257.191C942.906 254.212 934.268 253.963 926.254 256.485C922.087 257.618 918.255 259.755 915.103 262.708C911.95 265.661 909.578 269.339 908.189 273.42C906.191 278.966 905.668 284.933 906.675 290.738C908.142 299.948 912.676 307.112 921.08 311.489C926.16 313.958 931.747 315.231 937.397 315.209Z" fill="white"/>
<path d="M770.626 323.763C763.231 323.763 756.027 322.627 749.328 319.361C738.775 314.219 732.424 305.751 729.95 294.4C728.084 286.269 728.647 277.771 731.571 269.954C733.189 265.32 735.81 261.098 739.248 257.584C742.685 254.071 746.856 251.353 751.465 249.623C763.594 244.751 777.134 244.687 789.308 249.443C802.311 254.394 809.529 264.297 811.769 277.824C813.181 285.683 812.307 293.782 809.241 301.158C804.436 312.676 795.455 319.397 783.461 322.327C779.256 323.313 774.946 323.794 770.626 323.763ZM770.626 315.211C773.316 314.888 776.054 314.757 778.694 314.207C788.72 312.126 795.947 306.552 799.694 296.9C801.911 291.047 802.447 284.694 801.242 278.553C799.309 267.79 793.258 260.183 782.669 256.691C774.827 254.054 766.328 254.096 758.512 256.811C754.541 258.051 750.923 260.217 747.96 263.129C744.997 266.041 742.774 269.615 741.476 273.554C738.986 280.563 738.838 288.187 741.056 295.286C741.999 298.7 743.642 301.883 745.879 304.635C748.117 307.386 750.902 309.648 754.058 311.276C759.189 313.845 764.849 315.192 770.591 315.211H770.626Z" fill="white"/>
<path d="M504.586 248.477H515.139V262.673C515.439 262.458 515.572 262.411 515.619 262.315C519.221 254.995 525.392 250.833 532.824 248.213C538.928 246.222 545.4 245.613 551.77 246.431C556.205 246.766 560.532 247.961 564.508 249.948C571.256 253.536 574.99 259.265 576.431 266.548C577.024 269.555 577.337 272.61 577.367 275.674C577.463 290.421 577.367 305.168 577.367 319.926V321.397H566.813V319.962C566.813 304.821 566.813 289.679 566.813 274.514C566.796 272.206 566.518 269.907 565.985 267.661C565.446 264.894 564.115 262.341 562.153 260.311C560.191 258.28 557.682 256.858 554.927 256.215C546.265 253.752 537.014 254.348 528.743 257.901C520.722 261.346 516.736 267.912 515.535 276.332C515.267 278.345 515.143 280.376 515.164 282.407C515.164 294.846 515.164 307.284 515.164 319.722V321.361H504.622L504.586 248.477Z" fill="white"/>
<path d="M327.801 230.683V321.352H317.236V230.755H277.928V221.188H367.109V230.755L327.801 230.683Z" fill="white"/>
<path d="M829.691 225.219H840.257V248.422H860.834V256.159H840.335C840.335 256.71 840.264 257.128 840.264 257.535C840.264 272.844 840.264 288.149 840.264 303.449C840.249 304.524 840.303 305.6 840.444 306.666C841.021 310.65 843.339 312.647 847.748 313.054C852.157 313.403 856.597 313.169 860.951 312.359V318.471C860.951 320.935 860.951 320.995 858.548 321.27C852.547 321.964 846.546 322.466 840.537 320.983C834.326 319.44 830.939 315.72 830.143 309.381C829.901 307.566 829.776 305.736 829.769 303.904C829.769 288.436 829.769 272.971 829.769 257.511V255.812H813.732V248.051H829.636L829.691 225.219Z" fill="white"/>
<path d="M478.498 248.477H488.953V321.349H478.498V248.477Z" fill="white"/>
<path d="M882.799 321.392H872.373V248.508H882.799V321.392Z" fill="white"/>
<path d="M488.98 220.195V235.743H479.377C478.813 235.743 478.357 235.743 478.357 234.966C478.357 230.182 478.357 225.314 478.357 220.494C478.357 220.422 478.418 220.363 478.489 220.207L488.98 220.195Z" fill="white"/>
<path d="M872.359 220.18H882.816V235.728H872.359V220.18Z" fill="white"/>
</svg>
