<svg width="1838" height="821" viewBox="0 0 1838 821" fill="none" xmlns="http://www.w3.org/2000/svg">
<path fill-rule="evenodd" clip-rule="evenodd" d="M1279.26 455.981H1182.69V367.367H1277.74V386.958H1208.57V402.062H1274.08V420.574H1208.57V435.84H1279.26V456.003V455.981Z" fill="white"/>
<path fill-rule="evenodd" clip-rule="evenodd" d="M1834.88 455.992H1739.81V368.77H1833.38V388.048H1765.29V402.892H1829.78V421.114H1765.29V436.142H1834.88V455.992V455.992Z" fill="white"/>
<path fill-rule="evenodd" clip-rule="evenodd" d="M1410.19 455.981H1371.12L1319.68 389.699H1319.17V455.981H1293.54V367.367H1333.25L1384.06 433.714H1384.56V367.367H1410.19V455.981V455.981Z" fill="white"/>
<path fill-rule="evenodd" clip-rule="evenodd" d="M1719.86 455.981H1680.79L1629.35 389.699H1628.84V455.981H1603.21V367.367H1642.92L1693.72 433.714H1694.23V367.367H1719.86V455.981V455.981Z" fill="white"/>
<path fill-rule="evenodd" clip-rule="evenodd" d="M1485.69 457.264C1477.49 457.264 1470.41 457.063 1464.46 456.66C1459.34 456.391 1454.25 455.621 1449.28 454.362C1445.62 453.461 1442.18 451.852 1439.14 449.626C1436.49 447.55 1434.4 444.838 1433.08 441.74C1431.51 437.985 1430.53 434.012 1430.17 429.96C1429.63 424.518 1429.38 419.052 1429.42 413.583V410.994C1429.38 405.482 1429.64 399.972 1430.21 394.488C1430.58 390.403 1431.58 386.4 1433.17 382.621C1434.51 379.535 1436.6 376.834 1439.26 374.767C1442.3 372.56 1445.75 370.973 1449.41 370.096C1454.38 368.858 1459.47 368.107 1464.59 367.852C1470.54 367.471 1477.58 367.284 1485.69 367.291H1489.63C1496.45 367.291 1502.43 367.439 1507.56 367.734C1511.99 367.942 1516.41 368.479 1520.76 369.341C1523.94 369.937 1527.02 371.009 1529.88 372.523C1532.15 373.763 1534.1 375.527 1535.56 377.669C1537.03 379.938 1538.02 382.482 1538.47 385.146C1539.04 388.502 1539.31 391.903 1539.27 395.308V398.717H1514.17V397.638C1514.22 395.898 1513.91 394.167 1513.24 392.557C1512.45 391.061 1511.14 389.909 1509.55 389.321C1507.09 388.343 1504.49 387.757 1501.85 387.584C1498.55 387.246 1494.19 387.077 1488.79 387.077H1486.63C1481.72 387.077 1477.53 387.159 1474.06 387.325C1471.16 387.414 1468.27 387.775 1465.43 388.404C1463.45 388.82 1461.58 389.647 1459.94 390.831C1458.54 391.949 1457.49 393.447 1456.92 395.146C1456.17 397.315 1455.74 399.578 1455.63 401.867C1455.45 404.532 1455.35 407.747 1455.35 411.49V413.065C1455.35 416.733 1455.45 419.862 1455.63 422.473C1455.75 424.72 1456.18 426.939 1456.92 429.064C1457.49 430.761 1458.54 432.258 1459.94 433.379C1461.58 434.559 1463.45 435.385 1465.43 435.807C1468.27 436.429 1471.16 436.79 1474.06 436.886C1477.53 437.058 1481.72 437.145 1486.63 437.145H1488.79C1492.78 437.145 1496.22 437.069 1499.11 436.918C1501.55 436.815 1503.99 436.581 1506.4 436.217C1508.04 436.001 1509.64 435.558 1511.15 434.901C1512.23 434.417 1513.17 433.676 1513.89 432.743C1514.55 431.848 1514.99 430.809 1515.17 429.712C1515.4 428.367 1515.5 427.007 1515.49 425.644V423.174H1481.57V406.075H1540.28V425.763C1540.32 429.516 1540.04 433.266 1539.44 436.972C1538.97 439.913 1537.96 442.74 1536.44 445.3C1534.98 447.659 1532.99 449.646 1530.63 451.104C1527.76 452.82 1524.63 454.059 1521.36 454.772C1516.93 455.777 1512.42 456.419 1507.89 456.693C1502.67 457.067 1496.58 457.257 1489.63 457.264H1485.69Z" fill="white"/>
<path fill-rule="evenodd" clip-rule="evenodd" d="M1584.31 456.197H1558.33V368.273H1584.31V456.197Z" fill="white"/>
<path fill-rule="evenodd" clip-rule="evenodd" d="M455.054 457.156C447.862 457.156 441.551 456.966 436.121 456.585C431.4 456.308 426.71 455.647 422.096 454.61C418.655 453.869 415.352 452.587 412.312 450.813C409.819 449.31 407.701 447.259 406.119 444.815C404.498 442.172 403.399 439.242 402.883 436.184C402.209 432.352 401.892 428.466 401.933 424.576V367.291H428.073V416.151C428.073 419.171 428.17 421.76 428.386 423.929C428.528 425.833 428.965 427.704 429.68 429.474C430.272 430.934 431.24 432.21 432.485 433.174C433.945 434.208 435.595 434.941 437.34 435.332C439.783 435.936 442.28 436.297 444.795 436.411C447.74 436.583 451.268 436.659 455.335 436.659H457.546C461.624 436.659 465.098 436.573 468.086 436.378C470.595 436.245 473.087 435.883 475.53 435.3C477.281 434.927 478.935 434.192 480.385 433.142C481.624 432.17 482.594 430.896 483.201 429.442C483.912 427.67 484.349 425.8 484.495 423.896C484.704 421.739 484.808 419.157 484.808 416.151V367.291H510.937V424.63C510.979 428.507 510.683 432.38 510.052 436.206C509.574 439.26 508.504 442.192 506.902 444.836C505.345 447.278 503.249 449.33 500.774 450.835C497.76 452.608 494.483 453.89 491.065 454.632C486.426 455.671 481.711 456.332 476.965 456.606C471.492 456.995 465.116 457.185 457.838 457.178L455.054 457.156Z" fill="white"/>
<path fill-rule="evenodd" clip-rule="evenodd" d="M645.256 456.112H606.192L554.754 389.603H554.247V456.069H528.625V367.25H568.326L619.127 433.835H619.634V367.25H645.256V456.112Z" fill="white"/>
<path fill-rule="evenodd" clip-rule="evenodd" d="M722.245 412.109C726.74 412.109 730.336 411.969 733.033 411.688C735.168 411.578 737.25 410.992 739.129 409.973C740.457 409.152 741.416 407.85 741.804 406.338C742.278 404.32 742.492 402.25 742.441 400.177V398.646C742.49 396.599 742.276 394.554 741.804 392.561C741.612 391.812 741.27 391.109 740.799 390.496C740.328 389.882 739.738 389.37 739.064 388.99C737.16 388.015 735.072 387.449 732.936 387.329C730.272 387.048 726.701 386.908 722.245 386.908H689.676V412.109H722.245ZM768.775 456.125H742.948V448.951C742.966 446.717 742.858 444.484 742.624 442.262C742.481 440.609 742.034 438.996 741.308 437.505C740.649 436.231 739.667 435.152 738.46 434.376C736.975 433.486 735.341 432.872 733.638 432.564C731.2 432.089 728.729 431.8 726.248 431.701C723.32 431.549 719.84 431.474 715.805 431.474H689.676V456.168H663.784V367.263H732.71C738.693 367.166 744.673 367.614 750.575 368.601C754.557 369.21 758.338 370.751 761.611 373.099C764.315 375.222 766.272 378.15 767.2 381.46C768.334 385.646 768.865 389.973 768.775 394.309V397.437C768.815 400.507 768.54 403.572 767.955 406.586C767.501 408.985 766.605 411.279 765.312 413.35C764.09 415.237 762.474 416.838 760.576 418.043C758.376 419.378 755.964 420.327 753.445 420.848V421.355C756.061 421.74 758.631 422.391 761.115 423.297C762.986 423.992 764.616 425.213 765.808 426.813C767.055 428.63 767.857 430.714 768.149 432.898C768.614 436.087 768.824 439.309 768.775 442.532V456.125V456.125Z" fill="white"/>
<path fill-rule="evenodd" clip-rule="evenodd" d="M882.308 456.112H785.743V367.25H880.787V386.895H811.613V401.999H877.13V420.554H811.613V435.884H882.308V456.112Z" fill="white"/>
<path fill-rule="evenodd" clip-rule="evenodd" d="M969.604 421.634L951.49 385.979H950.854L932.87 421.634H969.604ZM1015.36 456.156H987.145L979 440.211H923.592L915.577 456.156H887.614L935.33 367.305H967.392L1015.36 456.156V456.156Z" fill="white"/>
<path fill-rule="evenodd" clip-rule="evenodd" d="M1110.5 456.142H1024.91V367.291H1051.04V435.472H1110.5V456.142Z" fill="white"/>
<path fill-rule="evenodd" clip-rule="evenodd" d="M279.143 437.459C276.133 451.959 262.756 489.178 220.089 509.33L202.957 490.062L174.045 519.126C157.595 518.906 141.418 514.884 126.779 507.376C112.141 499.868 99.4365 489.076 89.66 475.844C92.7306 476.801 95.902 477.398 99.1104 477.624C103.846 477.71 108.971 475.973 108.971 468.022V389.592C109.037 387.576 108.632 385.573 107.787 383.741C106.941 381.91 105.68 380.301 104.103 379.043C102.526 377.786 100.676 376.914 98.7027 376.498C96.7289 376.082 94.6852 376.133 92.7346 376.647C79.3465 379.732 68.6554 413.132 68.6554 413.132C68.5053 397.711 71.7155 382.443 78.0629 368.388C84.4102 354.333 93.7424 341.83 105.411 331.746C120.769 318.462 139.569 309.789 159.643 306.729C145.025 315.057 136.815 328.639 136.815 340.032C136.815 358.371 147.862 356.149 151.131 353.452V459.305C151.688 460.633 152.413 461.884 153.289 463.027C154.749 465.047 156.671 466.689 158.895 467.815C161.119 468.941 163.58 469.519 166.073 469.5C177.13 469.5 191.479 456.878 191.479 456.878V371.199C191.479 362.482 184.909 351.952 178.328 348.338C178.328 348.338 190.508 346.181 199.904 353.377C201.669 351.22 203.546 349.157 205.525 347.195C227.457 325.673 248.116 319.545 265.324 316.481C265.324 316.481 234.038 341.067 234.038 374.057C234.038 398.59 234.674 458.421 234.674 458.421C246.282 469.63 263.544 453.437 279.143 437.459Z" fill="white"/>
<path fill-rule="evenodd" clip-rule="evenodd" d="M175.447 237.766C140.936 237.766 107.201 247.999 78.5066 267.172C49.8123 286.345 27.4477 313.596 14.2412 345.48C1.03459 377.363 -2.42085 412.447 4.3118 446.294C11.0444 480.141 27.6628 511.232 52.0654 535.635C76.4679 560.037 107.559 576.656 141.406 583.388C175.253 590.121 210.337 586.665 242.22 573.459C274.104 560.252 301.355 537.888 320.528 509.193C339.701 480.499 349.935 446.764 349.935 412.253C349.935 365.976 331.551 321.595 298.828 288.872C266.106 256.149 221.724 237.766 175.447 237.766V237.766ZM175.447 579.75C142.316 579.75 109.93 569.926 82.3834 551.519C54.8366 533.113 33.3667 506.951 20.6887 476.342C8.01079 445.734 4.69421 412.053 11.1584 379.559C17.6226 347.066 33.5773 317.219 57.0047 293.793C80.4322 270.367 110.28 254.414 142.774 247.952C175.268 241.49 208.949 244.809 239.557 257.489C270.165 270.169 296.325 291.64 314.73 319.188C333.134 346.736 342.957 379.123 342.955 412.253C342.955 456.679 325.307 499.285 293.893 530.699C262.479 562.113 219.873 579.761 175.447 579.761V579.75Z" fill="white"/>
</svg>
