<svg width="24" height="24" viewBox="0 0 24 24" fill="none" xmlns="http://www.w3.org/2000/svg">
<path fill-rule="evenodd" clip-rule="evenodd" d="M21.75 8.01363V11.7939C21.282 11.5105 20.7794 11.2786 20.25 11.1059V9.27464L17.572 10.7624C15.4368 10.8867 13.5497 11.935 12.3047 13.5134C11.8298 13.5782 11.339 13.4907 10.9073 13.2509L3.75001 9.27464V17.5C3.75001 17.9142 4.0858 18.25 4.50001 18.25H10.7542C10.7717 18.7655 10.843 19.2673 10.9626 19.75H4.50001C3.25737 19.75 2.25001 18.7426 2.25001 17.5V8.01362C2.24983 8.0041 2.24983 7.99456 2.25001 7.98502V6.5C2.25001 5.25736 3.25737 4.25 4.50001 4.25H19.5C20.7427 4.25 21.75 5.25736 21.75 6.5V7.98502C21.7502 7.99456 21.7502 8.0041 21.75 8.01363ZM20.25 7.5587V6.5C20.25 6.08579 19.9142 5.75 19.5 5.75H4.50001C4.0858 5.75 3.75001 6.08579 3.75001 6.5V7.5587L11.6358 11.9397C11.8623 12.0655 12.1377 12.0655 12.3642 11.9397L20.25 7.5587Z" fill="white" fill-opacity="0.72"/>
<path fill-rule="evenodd" clip-rule="evenodd" d="M17.6668 12.25C17.1481 12.25 16.7155 12.6466 16.6705 13.1634L16.5751 14.2612C16.1735 14.4144 15.803 14.6303 15.4756 14.897L14.4761 14.4303C14.0061 14.2109 13.4463 14.3872 13.187 14.8364L12.8538 15.4135C12.5944 15.8627 12.7216 16.4357 13.1467 16.733L14.0501 17.3648C14.0171 17.5717 13.9999 17.7838 13.9999 18C13.9999 18.2161 14.0171 18.4283 14.0501 18.6351L13.1467 19.267C12.7216 19.5643 12.5944 20.1372 12.8538 20.5864L13.187 21.1635C13.4463 21.6127 14.0061 21.7891 14.4761 21.5696L15.4755 21.1029C15.803 21.3697 16.1735 21.5856 16.5751 21.7388L16.6705 22.8366C16.7155 23.3534 17.1481 23.75 17.6668 23.75H18.3331C18.8518 23.75 19.2844 23.3534 19.3294 22.8366L19.4248 21.7388C19.8264 21.5856 20.197 21.3697 20.5245 21.1029L21.524 21.5696C21.994 21.7891 22.5537 21.6127 22.8131 21.1635L23.1463 20.5864C23.4056 20.1372 23.2785 19.5643 22.8534 19.267L21.9498 18.635C21.9828 18.4282 21.9999 18.2161 21.9999 18C21.9999 17.7839 21.9828 17.5718 21.9498 17.3649L22.8534 16.733C23.2785 16.4357 23.4056 15.8627 23.1463 15.4135L22.8131 14.8364C22.5537 14.3872 21.994 14.2109 21.524 14.4303L20.5244 14.8971C20.1969 14.6303 19.8264 14.4144 19.4248 14.2612L19.3294 13.1634C19.2844 12.6466 18.8518 12.25 18.3331 12.25H17.6668ZM19.75 18C19.75 18.9665 18.9665 19.75 18 19.75C17.0335 19.75 16.25 18.9665 16.25 18C16.25 17.0335 17.0335 16.25 18 16.25C18.9665 16.25 19.75 17.0335 19.75 18Z" fill="white" fill-opacity="0.72"/>
</svg>
