<svg width="24" height="24" viewBox="0 0 24 24" fill="none" xmlns="http://www.w3.org/2000/svg">
<path fill-rule="evenodd" clip-rule="evenodd" d="M2.25 12C2.25 7.0869 6.70071 3.25 12 3.25C17.2993 3.25 21.75 7.0869 21.75 12C21.75 16.9131 17.2993 20.75 12 20.75C10.7706 20.75 9.59196 20.5457 8.50531 20.1715L4.38587 22.6431C4.13507 22.7936 3.81967 22.7846 3.5779 22.6199C3.33614 22.4553 3.21212 22.1652 3.2602 21.8767L4.05957 17.0805C2.92563 15.655 2.25 13.9016 2.25 12ZM12 4.75C7.35816 4.75 3.75 8.07654 3.75 12C3.75 13.6354 4.36665 15.1518 5.42339 16.3758C5.56905 16.5446 5.63212 16.7694 5.59547 16.9893L5.0068 20.5213L8.04014 18.7013C8.2382 18.5824 8.47995 18.5615 8.6955 18.6445C9.70517 19.0332 10.8223 19.25 12 19.25C16.6418 19.25 20.25 15.9235 20.25 12C20.25 8.07654 16.6418 4.75 12 4.75Z" fill="white" fill-opacity="0.72"/>
<path d="M9 12C9 12.5523 8.55228 13 8 13C7.44772 13 7 12.5523 7 12C7 11.4477 7.44772 11 8 11C8.55228 11 9 11.4477 9 12Z" fill="white" fill-opacity="0.72"/>
<path d="M13 12C13 12.5523 12.5523 13 12 13C11.4477 13 11 12.5523 11 12C11 11.4477 11.4477 11 12 11C12.5523 11 13 11.4477 13 12Z" fill="white" fill-opacity="0.72"/>
<path d="M17 12C17 12.5523 16.5523 13 16 13C15.4477 13 15 12.5523 15 12C15 11.4477 15.4477 11 16 11C16.5523 11 17 11.4477 17 12Z" fill="white" fill-opacity="0.72"/>
</svg>
